<?xml version="1.0" encoding="utf-8"?>
<!-- Generator: Adobe Illustrator 27.5.0, SVG Export Plug-In . SVG Version: 6.00 Build 0)  -->
<svg version="1.1" xmlns="http://www.w3.org/2000/svg" xmlns:xlink="http://www.w3.org/1999/xlink" x="0px" y="0px"
	 viewBox="0 0 500 500" style="enable-background:new 0 0 500 500;" xml:space="preserve">
<g id="BACKGROUND">
	<rect style="fill:#FFFFFF;" width="500" height="500"/>
</g>
<g id="OBJECTS">
	<path style="fill:#FBDED3;" d="M463.615,438.371c0,6.541-95.639,11.843-213.615,11.843c-117.976,0-213.615-5.302-213.615-11.843
		c0-6.541,95.638-11.843,213.615-11.843C367.976,426.528,463.615,431.83,463.615,438.371z"/>
	<g>
		<path style="fill:#FBDED3;" d="M226.181,123.727c-16.903-61.318-93.074-81.071-136.727-35.244
			c-0.627,0.658-1.253,1.327-1.879,2.007c-62.583,68.03-33.018,235.677,97.591,278.169
			c130.609,42.491,266.461-35.102,274.093-104.465c7.632-69.363-52.625-91.158-146.137-71.762
			C260.29,203.39,236.703,161.9,226.181,123.727z"/>
		<path style="fill:#FBDED3;" d="M340.347,138.281c-16.916,5.225-19.58,21.227-4.703,30.247c4.917,2.981,11.641,5.091,20.835,5.332
			c35.024,0.917,51.083-16.755,34.629-34.485C380.953,128.432,357.111,133.102,340.347,138.281z"/>
		<path style="fill:#FBDED3;" d="M75.067,299.298c-13.472-11.488-28.412-5.169-28.063,12.226c0.116,5.749,1.934,12.558,6.654,20.451
			c17.98,30.07,41.506,34.168,47.668,10.779C105.129,328.318,88.418,310.683,75.067,299.298z"/>
		<path style="fill:#FBDED3;" d="M375.782,361.862c-15.398,8.738-14.562,24.939,1.906,30.551c5.443,1.855,12.463,2.471,21.494,0.731
			c34.403-6.629,46.289-27.34,26.411-41.12C413.324,343.519,391.042,353.203,375.782,361.862z"/>
		<path style="fill:#FBDED3;" d="M428.14,332.455c-4.96,7.001-1.104,15.319,7.418,15.634c2.816,0.104,6.067-0.688,9.704-3.028
			c13.855-8.915,14.68-21.604,2.887-25.639C440.869,316.931,433.055,325.517,428.14,332.455z"/>
	</g>
	<g>
		<g>
			<g>
				<g>
					<path style="fill:#ED3915;" d="M120.736,352.555c0.008-0.17,0.895-17.066,7.321-22.56c1.498-1.28,3.136-1.803,5.012-1.602
						c10.998,1.191,11.283,24.022,11.284,24.252l2.01-0.013c-0.007-1.014-0.307-24.854-13.078-26.236
						c-2.421-0.265-4.621,0.435-6.536,2.073c-7.084,6.058-7.986,23.261-8.021,23.99L120.736,352.555z"/>
				</g>
			</g>
			<polygon style="fill:#FC5F2D;" points="150.581,350.562 102.004,350.359 92.255,435.046 160.641,435.332 			"/>
			<circle style="fill:#ED3915;" cx="128.288" cy="390.324" r="15.724"/>
			<g>
				<g>
					<g>
						<path style="fill:#FC5F2D;" d="M116.478,351.859c0.008-0.17,0.895-17.066,7.321-22.56c1.498-1.28,3.136-1.803,5.012-1.602
							c10.998,1.191,11.283,24.021,11.284,24.252l2.01-0.013c-0.007-1.014-0.307-24.854-13.078-26.237
							c-2.422-0.264-4.621,0.435-6.536,2.073c-7.084,6.058-7.986,23.261-8.021,23.99L116.478,351.859z"/>
					</g>
				</g>
			</g>
			<polygon style="fill:#ED3915;" points="160.641,435.332 166.132,429.187 155.103,354.152 150.581,350.562 			"/>
		</g>
		<g>
			<g>
				<path style="fill:#6020BF;" d="M85.952,355.683c0.008-0.17,0.895-17.066,7.321-22.56c1.498-1.28,3.137-1.803,5.012-1.602
					c10.998,1.191,11.283,24.022,11.284,24.252l2.01-0.013c-0.007-1.014-0.307-24.854-13.078-26.236
					c-2.421-0.265-4.621,0.435-6.536,2.073c-7.084,6.058-7.986,23.261-8.021,23.99L85.952,355.683z"/>
			</g>
			<polygon style="fill:#7846D3;" points="115.797,353.69 67.219,353.487 57.471,438.174 125.857,438.46 			"/>
			
				<ellipse transform="matrix(0.9254 -0.379 0.379 0.9254 -142.7237 63.3638)" style="fill:#6020BF;" cx="89.57" cy="394.173" rx="15.724" ry="15.724"/>
			<g>
				<g>
					<path style="fill:#7846D3;" d="M81.694,354.987c0.008-0.17,0.895-17.066,7.321-22.56c1.497-1.28,3.135-1.803,5.012-1.602
						c10.999,1.191,11.283,24.022,11.284,24.252l2.01-0.013c-0.006-1.014-0.307-24.854-13.078-26.236
						c-2.422-0.264-4.621,0.435-6.536,2.073c-7.084,6.058-7.986,23.261-8.021,23.99L81.694,354.987z"/>
				</g>
			</g>
			<polygon style="fill:#6020BF;" points="125.857,438.46 131.348,432.315 120.318,357.28 115.797,353.69 			"/>
		</g>
	</g>
	<g>
		<g>
			<path style="fill:#DB2121;" d="M337.691,232.274l2.484,0.82l1.318,0.434l3.733,1.23c0,0,55.6-44.976,41.352-71.768
				c-4.386-8.248-17.645-7.736-25.082,19.839C354.601,208.389,337.691,232.274,337.691,232.274z"/>
			<g>
				<path style="fill:#9D0D15;" d="M340.175,233.093l1.318,0.434c11.17-11.759,19.79-25.657,25.224-35.643
					c6.453-11.857,9.939-20.915,9.972-21.006c0.125-0.324-0.037-0.686-0.361-0.809c-0.323-0.125-0.686,0.038-0.81,0.36
					c-0.035,0.091-3.495,9.087-9.913,20.873C360.142,207.338,351.444,221.346,340.175,233.093z"/>
			</g>
		</g>
		<g>
			<path style="fill:#DB2121;" d="M167.641,138.13l-2.615,0.049l-1.387,0.025l-3.93,0.072c0,0-39.831-59.395-18.304-80.781
				c6.627-6.584,19.143-2.178,18.102,26.363C158.542,110.316,167.641,138.13,167.641,138.13z"/>
			<g>
				<path style="fill:#9D0D15;" d="M165.026,138.179l-1.387,0.025c-7.197-14.534-11.326-30.358-13.568-41.504
					c-2.662-13.234-3.316-22.918-3.321-23.014c-0.024-0.346,0.239-0.645,0.584-0.666c0.346-0.024,0.645,0.238,0.667,0.583
					c0.006,0.097,0.655,9.714,3.304,22.87C153.559,107.674,157.73,123.627,165.026,138.179z"/>
			</g>
		</g>
		<g>
			<path style="fill:#FC5F2D;" d="M180.36,147.39l-3.15,2.102l-1.671,1.114l-4.734,3.157c0,0-94.94-41.3-85.399-84.184
				c2.937-13.202,21.636-17.605,42.655,18.002C147.546,120.589,180.36,147.39,180.36,147.39z"/>
			<g>
				<path style="fill:#DB2121;" d="M177.21,149.492l-1.671,1.114c-20.124-12.098-37.516-28.164-48.953-40
					c-13.581-14.054-21.941-25.349-22.022-25.462c-0.299-0.403-0.213-0.972,0.192-1.268c0.403-0.299,0.972-0.213,1.269,0.19
					c0.084,0.114,8.384,11.33,21.888,25.299C139.409,121.259,156.951,137.45,177.21,149.492z"/>
			</g>
		</g>
		<g>
			<path style="fill:#FC5F2D;" d="M324.793,240.925l2.736,2.618l1.452,1.388l4.113,3.933c0,0,100.677-24.156,98.741-68.045
				c-0.596-13.511-18.244-21.1-45.137,10.308C361.768,220.24,324.793,240.925,324.793,240.925z"/>
			<g>
				<path style="fill:#DB2121;" d="M327.529,243.543l1.452,1.388c21.922-8.413,41.843-21.208,55.164-30.874
					c15.818-11.477,26.016-21.146,26.115-21.243c0.365-0.345,0.379-0.92,0.031-1.282c-0.345-0.365-0.92-0.378-1.282-0.034
					c-0.102,0.098-10.227,9.699-25.956,21.106C369.665,222.316,349.574,235.208,327.529,243.543z"/>
			</g>
		</g>
		<g>
			<g>
				<path style="fill:#FC5F2D;" d="M177.175,285.308c0.153,1.043,0.307,2.184,0.45,3.405l0.001,0.003
					c1.496,12.807,1.844,34.486-11.026,43.154c0,0-5.98-42.865-37.052-43.982c-31.072-1.117-31.427-12.131-35.901-30.428
					c-4.474-18.297,0.451-23.752-24.297-33.894s-29.533-36.165-29.533-36.165s27.692,22.147,47.206,16.237
					c19.514-5.91,28.498,9.408,31.845,21.934c3.346,12.526,20.2,8.334,31.483,12.42c11.283,4.086,25.65,40.818,25.65,40.818
					S176.586,281.332,177.175,285.308z"/>
			</g>
			<g>
				<g>
					<path style="fill:#DB2121;" d="M177.175,285.308c0.153,1.043,0.307,2.184,0.45,3.405c-4.016-5.314-8.51-9.396-12.428-12.369
						c-9.281-7.041-20.526-11.592-29.343-11.879c-14.038-0.453-24.269-10.588-33.166-32.867
						c-5.163-12.932-21.583-16.02-21.75-16.047c-0.478-0.086-0.799-0.545-0.712-1.023c0.086-0.481,0.544-0.801,1.022-0.715
						c0.714,0.127,17.547,3.278,23.078,17.129c8.6,21.537,18.342,31.334,31.585,31.762c9.303,0.3,20.65,4.873,30.353,12.233
						C169.693,277.539,173.553,280.969,177.175,285.308z"/>
				</g>
			</g>
		</g>
		<g>
			<g>
				<path style="fill:#FC5F2D;" d="M313.107,362.153c0.05,1.052,0.118,2.202,0.212,3.428v0.003
					c0.988,12.856,4.804,34.199,19.097,40.238c0,0-2.352-43.216,27.929-50.272c30.28-7.056,28.517-17.933,29.399-36.748
					c0.882-18.815-4.998-23.225,17.345-37.924c22.343-14.699,22.049-41.158,22.049-41.158s-22.931,27.047-43.216,24.989
					c-20.285-2.058-26.165,14.699-27.047,27.635c-0.882,12.935-18.227,12.053-28.517,18.227c-10.29,6.174-17.345,44.98-17.345,44.98
					S312.921,358.137,313.107,362.153z"/>
			</g>
			<g>
				<path style="fill:#DB2121;" d="M313.107,362.153c0.05,1.052,0.118,2.202,0.212,3.428c2.922-5.986,6.55-10.854,9.825-14.523
					c7.758-8.69,17.921-15.314,26.521-17.286c13.691-3.137,21.787-15.046,26.247-38.618c2.587-13.682,18.109-19.862,18.268-19.921
					c0.453-0.176,0.679-0.688,0.503-1.141c-0.176-0.456-0.688-0.682-1.141-0.506c-0.676,0.262-16.593,6.582-19.365,21.237
					c-4.31,22.787-11.992,34.27-24.907,37.23c-9.072,2.078-19.332,8.743-27.443,17.827
					C318.96,353.092,315.829,357.199,313.107,362.153z"/>
			</g>
		</g>
	</g>
	<g>
		<g>
			<g>
				<path style="fill:#133643;" d="M348.303,107.761v311.543c0,9.766-7.914,17.68-17.68,17.68H175.48
					c-4.907,0-9.343-1.996-12.547-5.221c-3.172-3.199-5.133-7.6-5.133-12.459V107.761c0-9.766,7.914-17.68,17.68-17.68h155.142
					c2.887,0,5.612,0.691,8.02,1.92C344.378,94.923,348.303,100.882,348.303,107.761z"/>
				<path style="fill:#000B17;" d="M348.303,107.761v311.543c0,9.766-7.914,17.68-17.68,17.68H175.48
					c-4.907,0-9.343-1.996-12.547-5.221L338.642,92.001C344.378,94.923,348.303,100.882,348.303,107.761z"/>
			</g>
			<g>
				<path style="fill:#000B17;" d="M157.8,187.281h-0.796c-3.132,0-5.671-2.539-5.671-5.672v-29.815
					c0-3.132,2.539-5.671,5.671-5.671h0.796V187.281z"/>
				<path style="fill:#000B17;" d="M348.303,176.513h0.652c2.563,0,4.64-2.078,4.64-4.64v-24.234c0-2.563-2.078-4.64-4.64-4.64
					h-0.652V176.513z"/>
				<path style="fill:#000B17;" d="M157.8,234.025h-0.796c-3.132,0-5.671-2.539-5.671-5.671v-29.815
					c0-3.132,2.539-5.671,5.671-5.671h0.796V234.025z"/>
			</g>
			<g>
				<path style="fill:#FFFFFF;" d="M339.48,106.69v313.68c0,4.31-3.49,7.79-7.79,7.79H174.41c-3.22,0-5.98-1.95-7.17-4.74
					c-0.4-0.94-0.62-1.97-0.62-3.05V106.69c0-4.3,3.49-7.79,7.79-7.79h157.28c1.09,0,2.12,0.22,3.06,0.62
					C337.53,100.72,339.48,103.48,339.48,106.69z"/>
				<g>
					<path style="fill:#FBDED3;" d="M240.93,241.252h-57.085c-5.527,0-10.007-4.48-10.007-10.007V174.16
						c0-5.527,4.48-10.007,10.007-10.007h57.085c5.527,0,10.007,4.48,10.007,10.007v57.085
						C250.937,236.772,246.457,241.252,240.93,241.252z"/>
					<g>
						<path style="fill:#FC5F2D;" d="M224.353,190.361c0,0-3.358-4.854-6.163-4.748c-2.805,0.105-24.981,16.515-32.423,17.675
							c-7.443,1.16-6.196,6.654-4.938,9.483c1.259,2.829,59.017,0.997,59.017,0.997s2.177-17.098,0.477-22.41
							C238.622,186.047,230.092,191.803,224.353,190.361z"/>
						<g>
							<g>
								<path style="fill:#FFFFFF;" d="M212.009,201.92c0.259,0.087,0.552,0.073,0.813-0.064c0.507-0.266,0.702-0.892,0.436-1.398
									c-0.089-0.17-2.211-4.17-5.198-5.806c-3.972-2.182-7.204-0.006-7.34,0.088c-0.471,0.325-0.589,0.97-0.264,1.441
									c0.324,0.471,0.97,0.589,1.442,0.264c0.088-0.059,2.337-1.524,5.167,0.025c2.434,1.334,4.339,4.916,4.358,4.952
									C211.552,201.666,211.765,201.838,212.009,201.92z"/>
							</g>
							<g>
								<path style="fill:#FFFFFF;" d="M215.197,199.111c0.258,0.087,0.551,0.073,0.813-0.064c0.507-0.266,0.702-0.892,0.437-1.399
									c-0.089-0.17-2.211-4.17-5.197-5.807c-3.976-2.184-7.205-0.007-7.341,0.088c-0.471,0.324-0.589,0.97-0.264,1.441
									c0.324,0.471,0.97,0.59,1.441,0.263c0.089-0.058,2.338-1.524,5.167,0.025c2.443,1.34,4.339,4.916,4.357,4.953
									C214.739,198.856,214.953,199.029,215.197,199.111z"/>
							</g>
							<g>
								<g>
									<path style="fill:#FFFFFF;" d="M207.742,204.142c0.259,0.087,0.551,0.073,0.813-0.064c0.507-0.266,0.702-0.892,0.437-1.399
										c-0.089-0.169-2.211-4.169-5.197-5.807c-3.975-2.184-7.205-0.007-7.341,0.088c-0.471,0.325-0.589,0.97-0.264,1.441
										c0.324,0.471,0.971,0.59,1.442,0.264c0.088-0.058,2.339-1.524,5.167,0.025c2.444,1.34,4.339,4.916,4.358,4.952
										C207.285,203.887,207.499,204.06,207.742,204.142z"/>
								</g>
							</g>
						</g>
					</g>
				</g>
				<g>
					<path style="fill:#FBDED3;" d="M322.467,241.252h-57.085c-5.527,0-10.007-4.48-10.007-10.007V174.16
						c0-5.527,4.48-10.007,10.007-10.007h57.085c5.527,0,10.007,4.48,10.007,10.007v57.085
						C332.474,236.772,327.994,241.252,322.467,241.252z"/>
					<path style="fill:#7846D3;" d="M321.783,194.38h-10.439v34.482h-35.001l0.109-34.482h-10.386
						c2.073-6.86,5.885-11.723,8.285-14.274c1.241-1.319,2.972-2.061,4.783-2.061h6.79c0,4.374,3.548,7.919,7.921,7.919
						c4.373,0,7.918-3.545,7.918-7.919h6.952c1.811,0,3.542,0.742,4.783,2.061C315.897,182.657,319.71,187.52,321.783,194.38z"/>
				</g>
				<g>
					<path style="fill:#FBDED3;" d="M240.93,404.378h-57.085c-5.527,0-10.007-4.48-10.007-10.007v-57.085
						c0-5.527,4.48-10.007,10.007-10.007h57.085c5.527,0,10.007,4.48,10.007,10.007v57.085
						C250.937,399.897,246.457,404.378,240.93,404.378z"/>
				</g>
				<g>
					<path style="fill:#FBDED3;" d="M322.467,404.378h-57.085c-5.527,0-10.007-4.48-10.007-10.007v-57.085
						c0-5.527,4.48-10.007,10.007-10.007h57.085c5.527,0,10.007,4.48,10.007,10.007v57.085
						C332.474,399.897,327.994,404.378,322.467,404.378z"/>
				</g>
				<path style="fill:#FBDED3;" d="M327.689,151.597H178.623c-2.643,0-4.785-2.143-4.785-4.785v-12.894
					c0-2.643,2.142-4.785,4.785-4.785h149.066c2.643,0,4.785,2.143,4.785,4.785v12.894
					C332.474,149.454,330.332,151.597,327.689,151.597z"/>
				<g>
					<path style="fill:#FBDED3;" d="M330.581,262.695h-154.85c-1.046,0-1.893-0.848-1.893-1.893v-6.008
						c0-1.046,0.848-1.893,1.893-1.893h154.85c1.046,0,1.893,0.848,1.893,1.893v6.008
						C332.474,261.847,331.626,262.695,330.581,262.695z"/>
					<path style="fill:#FBDED3;" d="M330.581,283.911h-154.85c-1.046,0-1.893-0.848-1.893-1.893v-6.008
						c0-1.046,0.848-1.893,1.893-1.893h154.85c1.046,0,1.893,0.848,1.893,1.893v6.008
						C332.474,283.064,331.626,283.911,330.581,283.911z"/>
					<path style="fill:#FBDED3;" d="M330.581,305.128h-154.85c-1.046,0-1.893-0.848-1.893-1.893v-6.008
						c0-1.046,0.848-1.893,1.893-1.893h154.85c1.046,0,1.893,0.848,1.893,1.893v6.008
						C332.474,304.28,331.626,305.128,330.581,305.128z"/>
				</g>
			</g>
			<g>
				<path style="fill:#133643;" d="M298.656,114.482h-91.209c-4.325,0-7.863-3.538-7.863-7.863v-2.208
					c0-4.325,3.538-7.863,7.863-7.863h91.209c4.324,0,7.863,3.538,7.863,7.863v2.208
					C306.518,110.943,302.98,114.482,298.656,114.482z"/>
				<path style="fill:#000B17;" d="M278.72,106.544h-60.222c-1.063,0-1.933-0.87-1.933-1.933v-0.543c0-1.063,0.87-1.933,1.933-1.933
					h60.222c1.063,0,1.934,0.87,1.934,1.933v0.543C280.654,105.674,279.784,106.544,278.72,106.544z"/>
				<path style="fill:#335464;" d="M296.267,104.192c0,1.461-1.185,2.646-2.646,2.646c-1.461,0-2.646-1.185-2.646-2.646
					c0-1.461,1.185-2.646,2.646-2.646C295.082,101.546,296.267,102.731,296.267,104.192z"/>
			</g>
			<path style="opacity:0.3;fill:#FFFFFF;" d="M339.48,106.69v313.68c0,4.31-3.49,7.79-7.79,7.79H174.41
				c-3.22,0-5.98-1.95-7.17-4.74l167.51-323.9C337.53,100.72,339.48,103.48,339.48,106.69z"/>
		</g>
		<g>
			<g>
				<path style="fill:#7846D3;" d="M340.901,163.135l13.926,31.747c0.903,2.059,3.305,2.996,5.364,2.093l31.747-13.926
					c2.059-0.903,2.996-3.305,2.093-5.364l-13.926-31.747c-0.903-2.059-3.305-2.996-5.364-2.093l-31.747,13.926
					C340.934,158.675,339.997,161.076,340.901,163.135z M362.072,157.012c-1.272,0.9-3.022,0.193-3.299-1.36
					c-0.137-0.769,0.203-1.587,0.841-2.038c1.272-0.9,3.022-0.193,3.299,1.36C363.05,155.743,362.71,156.561,362.072,157.012z"/>
				<g>
					<path style="fill:#FFFFFF;" d="M353.025,171.167c-1.53-3.488-0.154-6.473,2.828-7.782c2.983-1.308,6.109-0.298,7.639,3.19
						c1.543,3.518,0.157,6.474-2.826,7.782C357.684,175.666,354.568,174.685,353.025,171.167z M367.539,158.594l4.756-2.086
						l-4.809,25.594l-4.756,2.086L367.539,158.594z M359.497,168.328c-0.827-1.884-1.692-2.176-2.311-1.905
						c-0.619,0.271-0.992,1.107-0.166,2.992c0.827,1.885,1.695,2.176,2.313,1.904C359.952,171.047,360.324,170.213,359.497,168.328z
						 M371.533,174.12c-1.53-3.489-0.157-6.474,2.826-7.782s6.109-0.298,7.639,3.192c1.542,3.517,0.157,6.474-2.826,7.782
						S373.076,177.637,371.533,174.12z M378.003,171.282c-0.827-1.885-1.692-2.177-2.311-1.905c-0.618,0.271-0.99,1.105-0.163,2.99
						c0.827,1.885,1.692,2.177,2.311,1.905C378.458,174.001,378.83,173.168,378.003,171.282z"/>
				</g>
			</g>
			<g>
				<path style="fill:#000B17;" d="M363.325,139.508c-2.137-10.07-7.588-21.536-14.585-30.672c-0.143-0.188-0.291-0.377-0.44-0.567
					v1.784c7.264,9.667,12.17,20.931,14.022,29.668c0.764,3.603,1.016,6.748,0.778,9.23c-0.184,1.903-0.656,3.417-1.405,4.449
					c-0.289,0.397-0.617,0.723-0.987,0.973c-0.551,0.371-1.198,0.576-1.934,0.617c-0.053,0.338-0.025,0.692,0.1,1.035
					c0.897-0.059,1.7-0.328,2.407-0.803c0.461-0.309,0.866-0.709,1.219-1.19c0.949-1.288,1.508-3.173,1.665-5.547
					C364.333,145.993,364.056,142.961,363.325,139.508z M348.299,148.836c-10.662-13.194-25.672-52.015-28.23-58.754
					c-0.018-0.051-0.037-0.098-0.055-0.146c0.225,0.047,0.449,0.094,0.672,0.146h3.788c-1.661-0.559-3.386-1.008-5.172-1.323
					c-0.182-0.033-0.367,0.035-0.483,0.176c-0.119,0.141-0.152,0.334-0.086,0.506c0.039,0.106,0.121,0.324,0.24,0.641
					c2.247,5.967,18.145,47.561,29.328,60.338c1.043,1.192,2.044,2.133,2.991,2.77c0.293,0.199,0.582,0.385,0.866,0.561l1.151-0.504
					c-0.467-0.268-0.948-0.572-1.444-0.905C350.753,151.594,349.557,150.393,348.299,148.836z"/>
			</g>
		</g>
	</g>
	<g>
		<g>
			<g>
				<path style="fill:#FFAA95;" d="M395.472,420.318l-1.045,9.353c0,0-3.056,1.754-7.876,0.794l1.015-10.937L395.472,420.318z"/>
				<g>
					<path style="fill:#FC5F2D;" d="M388.831,429.402c0,0-1.535-2.218-2.816-2.17c-1.281,0.048-11.414,7.546-14.815,8.076
						c-3.401,0.53-2.831,3.04-2.256,4.333c0.575,1.293,26.967,0.455,26.967,0.455s0.995-7.813,0.218-10.24
						C395.35,427.431,391.453,430.06,388.831,429.402z"/>
					<g>
						<g>
							<path style="fill:#FFFFFF;" d="M383.19,434.683c0.118,0.04,0.252,0.033,0.371-0.029c0.232-0.122,0.321-0.408,0.2-0.639
								c-0.041-0.078-1.01-1.905-2.375-2.653c-1.815-0.997-3.292-0.003-3.354,0.04c-0.215,0.148-0.269,0.443-0.121,0.659
								c0.148,0.215,0.443,0.269,0.659,0.12c0.04-0.027,1.068-0.697,2.361,0.011c1.112,0.609,1.983,2.246,1.991,2.263
								C382.981,434.567,383.079,434.646,383.19,434.683z"/>
						</g>
						<g>
							<path style="fill:#FFFFFF;" d="M384.647,433.4c0.118,0.04,0.252,0.033,0.371-0.029c0.232-0.122,0.321-0.408,0.2-0.639
								c-0.041-0.078-1.01-1.905-2.375-2.653c-1.817-0.998-3.292-0.003-3.354,0.04c-0.215,0.148-0.269,0.443-0.12,0.659
								c0.148,0.215,0.443,0.27,0.659,0.12c0.04-0.027,1.068-0.697,2.361,0.011c1.116,0.612,1.982,2.246,1.991,2.263
								C384.438,433.284,384.536,433.362,384.647,433.4z"/>
						</g>
						<g>
							<g>
								<path style="fill:#FFFFFF;" d="M381.241,435.699c0.118,0.04,0.252,0.033,0.371-0.029c0.232-0.122,0.321-0.408,0.199-0.639
									c-0.041-0.077-1.01-1.905-2.375-2.653c-1.817-0.998-3.292-0.003-3.354,0.04c-0.215,0.148-0.269,0.443-0.12,0.659
									c0.148,0.215,0.444,0.269,0.659,0.12c0.04-0.027,1.069-0.696,2.361,0.011c1.117,0.612,1.983,2.246,1.991,2.263
									C381.032,435.582,381.129,435.661,381.241,435.699z"/>
							</g>
						</g>
					</g>
				</g>
			</g>
			<g>
				<path style="fill:#FFAA95;" d="M379.228,248.538c-0.623,2.147-1.265,4.338-1.91,6.496c-0.828,2.783-1.654,5.51-2.44,8.023
					c-1.107,3.538-2.13,6.648-2.952,8.871c-2.772,7.488-11.992,24.278-15.914,30.934l-6.46-2.127
					c2.969-5.606,10.037-29.563,13.443-35.059l2.051-7.355l1.6-5.738l1.13-4.045H379.228z"/>
				<g>
					<path style="fill:#FFAA95;" d="M343.92,312.655c-0.605,0.498-1.495,0.584-2.201,0.115c-0.736-0.488-1.024-1.428-0.689-2.245
						l2.529-6.166c0.001-0.001,0.002-0.001,0.004-0.001c-0.584-1.447,0.262-3.081,1.793-3.428l5.943-1.344
						c0,0,4.399,0.406,5.258,2.073c0.545,1.058-0.902,3.889-2.032,5.817c0.356,0.786,0.379,1.723,0.016,2.561l-1.545,3.565
						c-0.458,1.058-1.762,1.444-2.723,0.806c-0.197-0.131-0.359-0.296-0.489-0.48l-0.023,0.053
						c-0.458,1.058-1.762,1.444-2.722,0.806c-0.122-0.081-0.227-0.178-0.324-0.281c-0.589,0.363-1.365,0.387-1.995-0.031
						C344.109,314.07,343.813,313.354,343.92,312.655z"/>
					<path style="fill:#FF8B6B;" d="M350.605,301.785c0,0-1.802,1.715-2.876,1.563c0,0,1.053,1.107,0.736,2.122
						c0,0,0.99-0.415,1.806,0.433c0,0,1.262-0.132,1.689,0.764c0,0,1.504-0.388,2.113,0.432c0,0,0.209-1.546-1.915-1.73
						c-2.124-0.184-2.94-1.032-2.376-1.883C350.347,302.635,350.605,301.785,350.605,301.785z"/>
				</g>
				<path style="fill:#FF8B6B;" d="M377.318,255.034c-0.828,2.783-1.654,5.51-2.44,8.023c-4.673-0.499-7.907-2.817-9.832-4.736
					l1.6-5.738L377.318,255.034z"/>
				<path style="fill:#6020BF;" d="M379.778,214.879c0,0-11.966,28.478-17.11,37.704c0,0,7.195,6.126,14.208,6.299
					C376.876,258.882,380.941,227.609,379.778,214.879z"/>
			</g>
			<g>
				<path style="fill:#FFAA95;" d="M435.31,408.022l6.06,7.201c0,0-0.833,3.423-4.85,6.256l-7.228-8.271L435.31,408.022z"/>
				<g>
					<path style="fill:#FC5F2D;" d="M437.319,419.094c0,0-2.665-0.416-3.513,0.547c-0.848,0.962-2.394,13.472-4.353,16.303
						c-1.959,2.83,0.253,4.147,1.587,4.62c1.333,0.474,18.908-19.232,18.908-19.232s-4.977-6.103-7.272-7.212
						S439.603,417.647,437.319,419.094z"/>
					<g>
						<g>
							<path style="fill:#FFFFFF;" d="M437.261,426.821c0.111-0.058,0.198-0.16,0.235-0.289c0.071-0.252-0.074-0.513-0.326-0.585
								c-0.084-0.024-2.077-0.58-3.559-0.106c-1.973,0.628-2.27,2.384-2.282,2.459c-0.041,0.258,0.136,0.5,0.394,0.541
								c0.258,0.041,0.5-0.136,0.541-0.394c0.008-0.048,0.231-1.254,1.635-1.704c1.208-0.386,2.994,0.111,3.012,0.116
								C437.033,426.892,437.158,426.876,437.261,426.821z"/>
						</g>
						<g>
							<path style="fill:#FFFFFF;" d="M437.335,424.881c0.11-0.058,0.198-0.16,0.235-0.289c0.072-0.252-0.074-0.513-0.326-0.585
								c-0.084-0.024-2.077-0.58-3.559-0.107c-1.975,0.629-2.27,2.384-2.282,2.459c-0.041,0.258,0.136,0.501,0.394,0.541
								c0.258,0.041,0.501-0.136,0.541-0.395c0.008-0.048,0.231-1.254,1.635-1.703c1.213-0.387,2.994,0.111,3.012,0.116
								C437.106,424.952,437.231,424.936,437.335,424.881z"/>
						</g>
						<g>
							<path style="fill:#FFFFFF;" d="M436.654,428.934c0.11-0.058,0.198-0.16,0.235-0.289c0.071-0.252-0.075-0.513-0.326-0.585
								c-0.084-0.024-2.077-0.58-3.559-0.107c-1.975,0.629-2.27,2.384-2.282,2.459c-0.041,0.258,0.136,0.501,0.394,0.541
								c0.258,0.041,0.501-0.136,0.541-0.394c0.008-0.048,0.232-1.254,1.635-1.703c1.213-0.387,2.994,0.111,3.012,0.116
								C436.426,429.005,436.55,428.988,436.654,428.934z"/>
						</g>
					</g>
				</g>
			</g>
			<g>
				<path style="fill:#000B17;" d="M401.251,308.668l4.673,50.543c0,0,6.993,7.832,12.251,17.41
					c4.414,8.039,18.14,31.749,18.14,31.749l-6.189,4.789l-42.722-41.364l-9.499-63.623L401.251,308.668z"/>
				<path style="fill:#133643;" d="M427.824,413.817c0.639,1.605,1.833,2.697,3.229,3.614l8.26-6.975
					c-0.693-1.465-1.641-2.73-2.814-3.821L427.824,413.817z"/>
			</g>
			<g>
				<path style="fill:#133643;" d="M432.714,310.772c0,0-10.971,26.974-25.23,48.008c0,0-2.129,20.471-5.771,31.368
					c-1.595,4.771-4.522,26.887-4.522,26.887h-10.978l2.791-62.856l11.443-45.527L432.714,310.772z"/>
				<path style="fill:#3A555B;" d="M385.208,416.664c-0.686,1.88-0.498,3.745,0,5.613l12.518,0.35c0.532-1.8,0.69-3.625,0.518-5.472
					L385.208,416.664z"/>
			</g>
			<g>
				<g>
					<g>
						<g>
							<path style="fill:#7846D3;" d="M433.084,296.517c0.003,0.386,0,0.766,0,1.141c-0.009,6.848-0.042,12.156-0.076,14.762
								c-6.615,1.792-13.229,2.949-19.846,3.485c-0.301,0.023-0.597,0.045-0.899,0.068c-0.161,0.011-0.321,0.023-0.482,0.031
								c-0.355,0.025-0.713,0.048-1.065,0.065c-0.394,0.025-0.786,0.045-1.183,0.065c-4.502,0.208-9.003,0.127-13.508-0.242
								c-0.91-0.076-1.814-0.163-2.724-0.262c-0.059-0.006-0.116-0.011-0.175-0.017c-0.231-0.025-0.462-0.054-0.696-0.082
								c-0.141-0.017-0.282-0.034-0.42-0.051c-5.237-0.625-10.474-1.648-15.714-3.059c-0.014-1.183-0.02-2.938-0.02-5.15
								c0-0.411,0-0.834,0.003-1.276v-0.003c0.003-3.164,0.023-7.102,0.056-11.553c0.003-0.38,0.006-0.763,0.008-1.152
								c0.025-2.964,0.056-6.138,0.096-9.449c0.006-0.383,0.009-0.766,0.014-1.152c0.042-3.395,0.093-6.922,0.152-10.502
								c0.037-2.186,0.076-4.392,0.121-6.6c0.045-2.237,0.093-4.476,0.146-6.702c0.011-0.485,0.023-0.969,0.037-1.454
								c0.513-21.047,1.4-40.391,2.868-42.549c1.017-1.493,3.347-3.248,6.09-5.017c0.335-0.214,0.676-0.431,1.023-0.648
								c1.169-0.73,10.705-3.969,11.916-4.682l10.079-0.704c0.062,0.037,9.699,3.287,9.761,3.321
								c0.414,0.237,0.834,0.476,1.248,0.715c3.569,2.059,7.091,4.229,9.119,6.096c0.296,0.27,0.561,0.535,0.786,0.794
								c0.18,0.206,0.341,0.406,0.47,0.603c0.121,0.178,0.239,0.476,0.352,0.885c1.22,4.431,1.859,21.846,2.178,40.794
								c0.022,1.358,0.042,2.724,0.062,4.093c0.009,0.6,0.017,1.203,0.025,1.806c0.008,0.414,0.014,0.831,0.017,1.245
								c0.003,0.208,0.006,0.414,0.008,0.623c0.014,1.031,0.025,2.059,0.034,3.082c0.008,0.758,0.017,1.513,0.025,2.268
								C433.064,279.697,433.092,288.965,433.084,296.517z"/>
						</g>
					</g>
				</g>
			</g>
			<g>
				<g>
					<path style="fill:#FFAA95;" d="M451.108,323.579c0.248,2.69-3.028,1.231-2.102-4.22c0.924-5.451-1.702-10.387-2.834-10.229
						c-1.135,0.16,0.938,5.952-0.07,8.04c-1.006,2.087-2.307-1.969-3.603-4.428c-1.344-2.555-1.265-8.13-0.654-12.108
						c0.611-3.98-6.6-28.148-6.637-35.152l-0.879-2.969l-3.217-10.871l-5.037-17.024c0,0,3.017-12.885,8.105-11.778
						c0,0,2.693,8.975,5.572,19.097c0.487,1.718,0.98,3.471,1.468,5.217c2.051,7.339,3.978,14.584,4.874,18.883
						c2.366,11.35,2.549,34.943,2.549,34.943s4.175,8.668,4.274,12.525C453.021,317.618,450.863,320.889,451.108,323.579z"/>
					<path style="fill:#FF8B6B;" d="M441.22,247.155l-6.891,15.359l-3.217-10.871l8.64-9.705
						C440.24,243.656,440.733,245.408,441.22,247.155z"/>
				</g>
				<path style="fill:#7846D3;" d="M441.562,242.58c-3.023,5.184-6.096,10.339-9.158,15.502c-1.009-3.378-2.054-6.62-3.034-9.601
					c-0.003-0.008-0.006-0.014-0.008-0.022c-0.392-1.192-0.775-2.341-1.141-3.44c-0.006-0.02-0.011-0.039-0.02-0.056
					c-0.127-0.386-0.251-0.766-0.377-1.138v-0.003c-1.462-4.42-2.595-7.933-2.919-9.981c-0.873-5.513,1.507-16.314,4.86-18.443l0,0
					c0.087,0.194,0.352-0.406,0.509-0.039c0.589,1.361,3.203,4.721,4.497,7.995c0.166,0.417,0.335,0.851,0.51,1.293
					C437.153,229.461,439.444,235.723,441.562,242.58z"/>
			</g>
			<g>
				<g>
					<g>
						<path style="fill:#6020BF;" d="M404.294,213.906c-4.365,0-7.442-3.982-7.57-4.152c-0.184-0.242-0.15-0.596,0.076-0.793
							c0.226-0.196,0.557-0.16,0.741,0.082c0.04,0.052,2.905,3.736,6.753,3.736c3.803,0,6.122-4.169,6.145-4.212
							c0.147-0.269,0.47-0.36,0.72-0.203c0.251,0.156,0.337,0.501,0.191,0.769C411.244,209.329,408.71,213.906,404.294,213.906z"/>
					</g>
				</g>
				<g>
					<path style="fill:#6020BF;" d="M385.839,252.064c-0.081,0-0.162-0.02-0.24-0.061c-0.262-0.142-0.366-0.484-0.234-0.763
						l1.904-4.023c0.132-0.28,0.452-0.392,0.714-0.25c0.262,0.141,0.367,0.483,0.234,0.764l-1.903,4.022
						C386.22,251.95,386.033,252.064,385.839,252.064z"/>
				</g>
				<g>
					<path style="fill:#6020BF;" d="M381.872,248.768c-0.069,0.046-0.148,0.075-0.234,0.083c-0.292,0.028-0.55-0.203-0.576-0.516
						l-0.373-4.491c-0.026-0.312,0.19-0.588,0.482-0.616c0.292-0.028,0.55,0.203,0.576,0.516l0.373,4.491
						C382.139,248.456,382.037,248.658,381.872,248.768z"/>
				</g>
				<g>
					<path style="fill:#6020BF;" d="M392.099,241.805c-0.255,0-0.48-0.197-0.524-0.476l-0.688-4.448
						c-0.048-0.31,0.148-0.602,0.438-0.653c0.29-0.051,0.563,0.158,0.611,0.468l0.688,4.448c0.048,0.31-0.148,0.602-0.438,0.653
						C392.156,241.803,392.127,241.805,392.099,241.805z"/>
				</g>
				<g>
					<path style="fill:#6020BF;" d="M409.199,243.461c-0.092,0-0.185-0.025-0.27-0.079c-0.253-0.16-0.336-0.508-0.186-0.778
						l2.147-3.879c0.149-0.27,0.475-0.36,0.728-0.2c0.253,0.16,0.336,0.508,0.186,0.778l-2.147,3.88
						C409.558,243.361,409.381,243.461,409.199,243.461z"/>
				</g>
				<g>
					<path style="fill:#6020BF;" d="M388.191,226.073c-0.099,0-0.199-0.029-0.288-0.091l-3.54-2.448
						c-0.246-0.171-0.317-0.522-0.158-0.785c0.16-0.263,0.488-0.339,0.735-0.169l3.54,2.448c0.246,0.171,0.317,0.522,0.158,0.786
						C388.536,225.981,388.366,226.073,388.191,226.073z"/>
				</g>
				<g>
					<path style="fill:#6020BF;" d="M403.959,262.215c-0.081,0-0.162-0.02-0.239-0.061c-0.262-0.142-0.366-0.483-0.234-0.763
						l1.904-4.023c0.133-0.28,0.452-0.392,0.714-0.25c0.262,0.142,0.367,0.484,0.234,0.764l-1.903,4.022
						C404.34,262.101,404.153,262.215,403.959,262.215z"/>
				</g>
				<g>
					<path style="fill:#6020BF;" d="M395.596,229.099c-0.177,0-0.35-0.094-0.451-0.267c-0.156-0.266-0.08-0.617,0.168-0.783
						l3.573-2.392c0.249-0.166,0.576-0.086,0.732,0.18c0.156,0.266,0.08,0.617-0.168,0.783l-3.573,2.392
						C395.79,229.071,395.692,229.099,395.596,229.099z"/>
				</g>
				<g>
					<path style="fill:#6020BF;" d="M387.098,212.372c0.008,0.11-0.013,0.217-0.061,0.307c-0.082,0.166-0.242,0.285-0.432,0.299
						c-0.293,0.022-0.545-0.214-0.566-0.527l-0.169-2.589c0.335-0.214,0.674-0.431,1.022-0.648L387.098,212.372z"/>
				</g>
				<g>
					<path style="fill:#6020BF;" d="M382.335,237.054c-0.177,0-0.35-0.094-0.451-0.267c-0.156-0.266-0.08-0.617,0.168-0.783
						l3.573-2.392c0.249-0.166,0.576-0.086,0.732,0.18c0.156,0.266,0.08,0.617-0.168,0.783l-3.573,2.392
						C382.529,237.026,382.431,237.054,382.335,237.054z"/>
				</g>
				<g>
					<path style="fill:#6020BF;" d="M410.829,217.424c-0.1,0-0.202-0.03-0.292-0.094c-0.245-0.173-0.313-0.525-0.151-0.787
						l2.037-3.307c0.161-0.262,0.491-0.335,0.736-0.162c0.245,0.173,0.313,0.525,0.151,0.787l-2.037,3.307
						C411.171,217.334,411.002,217.424,410.829,217.424z"/>
				</g>
				<g>
					<path style="fill:#6020BF;" d="M412.655,274.549c-0.139,0-0.279-0.059-0.383-0.175l-2.919-3.252
						c-0.203-0.226-0.196-0.586,0.015-0.803c0.211-0.218,0.548-0.21,0.751,0.016l2.919,3.252c0.203,0.226,0.196,0.586-0.015,0.803
						C412.92,274.497,412.788,274.549,412.655,274.549z"/>
				</g>
				<g>
					<path style="fill:#6020BF;" d="M401.927,273.873c-0.14,0-0.279-0.059-0.383-0.175l-2.919-3.252
						c-0.203-0.226-0.196-0.586,0.015-0.803c0.212-0.217,0.547-0.21,0.751,0.016l2.919,3.252c0.203,0.226,0.196,0.586-0.015,0.803
						C402.192,273.821,402.06,273.873,401.927,273.873z"/>
				</g>
				<g>
					<path style="fill:#6020BF;" d="M394.215,295.857c-0.049-0.14-0.047-0.3,0.018-0.445l1.823-4.065
						c0.127-0.283,0.444-0.402,0.708-0.267c0.265,0.136,0.376,0.475,0.249,0.758l-1.822,4.065c-0.127,0.283-0.444,0.402-0.709,0.267
						C394.354,296.104,394.261,295.989,394.215,295.857z"/>
				</g>
				<g>
					<path style="fill:#6020BF;" d="M425.001,309.271c-0.049-0.14-0.047-0.3,0.018-0.445l1.823-4.065
						c0.127-0.283,0.444-0.402,0.708-0.267c0.265,0.136,0.376,0.475,0.249,0.758l-1.823,4.065c-0.127,0.283-0.444,0.402-0.708,0.267
						C425.14,309.518,425.047,309.403,425.001,309.271z"/>
				</g>
				<g>
					<path style="fill:#6020BF;" d="M411.781,316.004c-0.356,0.025-0.711,0.048-1.064,0.065l-0.371-2.533
						c-0.045-0.31,0.153-0.6,0.443-0.648c0.29-0.048,0.561,0.163,0.606,0.473L411.781,316.004z"/>
				</g>
				<g>
					<path style="fill:#6020BF;" d="M416.021,308.351c-0.115-0.085-0.197-0.219-0.22-0.378l-0.652-4.454
						c-0.046-0.31,0.153-0.6,0.443-0.649c0.29-0.048,0.561,0.163,0.607,0.473l0.653,4.454c0.045,0.31-0.153,0.601-0.443,0.649
						C416.266,308.47,416.129,308.432,416.021,308.351z"/>
				</g>
				<g>
					<path style="fill:#6020BF;" d="M390.389,271.108c-0.09,0-0.182-0.025-0.266-0.077c-0.254-0.157-0.341-0.505-0.193-0.776
						l2.112-3.902c0.147-0.272,0.471-0.364,0.726-0.207c0.254,0.157,0.34,0.505,0.193,0.776l-2.112,3.902
						C390.751,271.006,390.573,271.108,390.389,271.108z"/>
				</g>
				<g>
					<path style="fill:#6020BF;" d="M396.59,261.355c-0.193,0-0.378-0.112-0.473-0.308l-1.932-4.007
						c-0.135-0.279-0.032-0.622,0.228-0.765c0.26-0.145,0.581-0.035,0.716,0.244l1.932,4.007c0.135,0.279,0.032,0.622-0.228,0.765
						C396.755,261.334,396.672,261.355,396.59,261.355z"/>
				</g>
				<g>
					<path style="fill:#6020BF;" d="M379.797,260.767c-0.055,0.07-0.126,0.124-0.2,0.158c-0.179,0.079-0.39,0.051-0.548-0.09
						l-2.173-1.952c0.011-0.484,0.021-0.969,0.034-1.454l2.824,2.535C379.957,260.167,379.986,260.525,379.797,260.767z"/>
				</g>
				<g>
					<path style="fill:#6020BF;" d="M396.562,218.847c-0.193,0-0.378-0.112-0.473-0.308l-1.932-4.007
						c-0.135-0.279-0.032-0.622,0.228-0.765c0.26-0.144,0.581-0.035,0.716,0.245l1.932,4.006c0.135,0.279,0.032,0.622-0.228,0.765
						C396.728,218.827,396.644,218.847,396.562,218.847z"/>
				</g>
				<g>
					<path style="fill:#6020BF;" d="M408.949,233.526c-0.033,0-0.067-0.003-0.101-0.01c-0.288-0.06-0.477-0.357-0.421-0.666
						l0.799-4.426c0.056-0.309,0.335-0.509,0.622-0.45c0.288,0.059,0.477,0.358,0.421,0.665l-0.799,4.426
						C409.421,233.337,409.199,233.526,408.949,233.526z"/>
				</g>
				<g>
					<path style="fill:#6020BF;" d="M402.053,237.412c-0.034,0-0.067-0.003-0.101-0.01c-0.288-0.06-0.476-0.357-0.421-0.665
						l0.799-4.426c0.056-0.309,0.335-0.509,0.622-0.45c0.288,0.06,0.477,0.358,0.421,0.665l-0.799,4.426
						C402.525,237.224,402.302,237.412,402.053,237.412z"/>
				</g>
				<g>
					<path style="fill:#6020BF;" d="M406.994,222.807c-0.176,0-0.348-0.093-0.449-0.264l-2.259-3.806
						c-0.157-0.265-0.084-0.616,0.164-0.784c0.249-0.168,0.576-0.089,0.733,0.175l2.259,3.806c0.157,0.265,0.084,0.616-0.164,0.784
						C407.189,222.779,407.091,222.807,406.994,222.807z"/>
				</g>
				<g>
					<path style="fill:#6020BF;" d="M386.271,262.058c-0.145-0.166-0.189-0.416-0.092-0.633l1.815-4.069
						c0.126-0.283,0.443-0.403,0.708-0.268c0.266,0.135,0.377,0.474,0.251,0.757l-1.815,4.069c-0.126,0.283-0.443,0.403-0.708,0.268
						C386.368,262.151,386.315,262.108,386.271,262.058z"/>
				</g>
				<g>
					<path style="fill:#6020BF;" d="M399.937,250.253c-0.212,0-0.413-0.137-0.495-0.362l-1.536-4.198
						c-0.107-0.292,0.028-0.622,0.301-0.736c0.273-0.115,0.581,0.03,0.688,0.322l1.536,4.198c0.107,0.292-0.028,0.622-0.301,0.736
						C400.066,250.24,400.001,250.253,399.937,250.253z"/>
				</g>
				<g>
					<path style="fill:#6020BF;" d="M416.815,276.184c-0.081,0-0.162-0.02-0.239-0.061c-0.262-0.141-0.366-0.483-0.234-0.763
						l1.904-4.023c0.132-0.28,0.452-0.392,0.714-0.25c0.262,0.141,0.367,0.483,0.234,0.763l-1.904,4.023
						C417.196,276.071,417.009,276.184,416.815,276.184z"/>
				</g>
				<g>
					<path style="fill:#6020BF;" d="M388.841,305.096c-0.001,0.086-0.02,0.173-0.06,0.255c-0.135,0.279-0.456,0.387-0.716,0.243
						l-3.743-2.074c-0.26-0.144-0.362-0.487-0.227-0.766c0.135-0.279,0.456-0.387,0.716-0.243l3.743,2.074
						C388.739,304.687,388.843,304.888,388.841,305.096z"/>
				</g>
				<g>
					<path style="fill:#6020BF;" d="M378.68,307.674c0,0.087-0.018,0.175-0.058,0.256c-0.134,0.279-0.456,0.386-0.716,0.242
						l-1.628-0.902c0-0.411,0-0.834,0.003-1.276l2.113,1.169C378.577,307.266,378.683,307.469,378.68,307.674z"/>
				</g>
				<g>
					<path style="fill:#6020BF;" d="M394.407,312.689l-1.28,2.924c-0.232-0.025-0.464-0.053-0.698-0.082
						c-0.14-0.017-0.279-0.034-0.419-0.051l1.436-3.273c0.124-0.285,0.44-0.408,0.706-0.273
						C394.418,312.066,394.534,312.404,394.407,312.689z"/>
				</g>
				<g>
					<path style="fill:#6020BF;" d="M423.723,265.926c-0.255,0-0.481-0.197-0.524-0.475l-0.688-4.448
						c-0.048-0.309,0.148-0.602,0.438-0.653c0.29-0.051,0.563,0.158,0.611,0.468l0.688,4.448c0.048,0.31-0.148,0.602-0.437,0.653
						C423.781,265.923,423.751,265.926,423.723,265.926z"/>
				</g>
				<g>
					<path style="fill:#6020BF;" d="M424.161,233.105c-0.092,0-0.185-0.025-0.27-0.079c-0.253-0.16-0.336-0.508-0.186-0.778
						l2.147-3.879c0.149-0.27,0.475-0.36,0.728-0.2c0.253,0.16,0.336,0.508,0.186,0.778l-2.147,3.88
						C424.52,233.005,424.343,233.105,424.161,233.105z"/>
				</g>
				<g>
					<path style="fill:#6020BF;" d="M417.257,248.873c-0.099,0-0.199-0.029-0.288-0.091l-3.54-2.448
						c-0.246-0.171-0.317-0.522-0.158-0.786c0.16-0.263,0.488-0.339,0.734-0.169l3.54,2.448c0.246,0.171,0.317,0.522,0.158,0.786
						C417.602,248.782,417.431,248.873,417.257,248.873z"/>
				</g>
				<g>
					<path style="fill:#6020BF;" d="M379.78,275.32c-0.081,0-0.162-0.02-0.239-0.061c-0.262-0.141-0.367-0.484-0.234-0.763
						l1.904-4.022c0.133-0.28,0.452-0.392,0.714-0.25c0.262,0.141,0.366,0.483,0.234,0.763l-1.904,4.023
						C380.161,275.206,379.974,275.32,379.78,275.32z"/>
				</g>
				<g>
					<path style="fill:#6020BF;" d="M423.288,254.984c-0.177,0-0.35-0.094-0.451-0.267c-0.156-0.266-0.08-0.617,0.168-0.783
						l3.573-2.392c0.249-0.166,0.576-0.086,0.732,0.18c0.156,0.266,0.08,0.617-0.168,0.783l-3.573,2.392
						C423.482,254.956,423.384,254.984,423.288,254.984z"/>
				</g>
				<g>
					<path style="fill:#6020BF;" d="M414.722,260.674c-0.13,0.128-0.317,0.185-0.5,0.131c-0.283-0.082-0.45-0.395-0.373-0.697
						l1.106-4.351c0.077-0.302,0.369-0.482,0.652-0.399c0.283,0.082,0.45,0.395,0.373,0.697l-1.106,4.35
						C414.847,260.513,414.793,260.605,414.722,260.674z"/>
				</g>
				<g>
					<path style="fill:#6020BF;" d="M429.802,214.755l-0.925,1.499c-0.103,0.163-0.271,0.254-0.445,0.254
						c-0.1,0-0.2-0.028-0.29-0.093c-0.245-0.172-0.314-0.524-0.153-0.786l1.027-1.668
						C429.312,214.232,429.576,214.496,429.802,214.755z"/>
				</g>
				<g>
					<path style="fill:#6020BF;" d="M433.843,224.646l-0.983,1.595c-0.103,0.166-0.271,0.256-0.445,0.256
						c-0.1,0-0.2-0.031-0.292-0.093c-0.245-0.175-0.311-0.527-0.15-0.789l1.393-2.262
						C433.521,223.77,433.679,224.204,433.843,224.646z"/>
				</g>
				<g>
					<path style="fill:#6020BF;" d="M387.898,289.365c-0.139,0-0.279-0.059-0.383-0.175l-2.92-3.252
						c-0.203-0.226-0.196-0.586,0.015-0.803c0.211-0.218,0.548-0.21,0.751,0.016l2.919,3.252c0.203,0.226,0.196,0.586-0.015,0.803
						C388.163,289.313,388.031,289.365,387.898,289.365z"/>
				</g>
				<g>
					<path style="fill:#6020BF;" d="M407.323,300.735c-0.139,0-0.279-0.059-0.383-0.175l-2.919-3.252
						c-0.203-0.226-0.196-0.586,0.015-0.803c0.211-0.218,0.548-0.21,0.751,0.016l2.919,3.252c0.203,0.226,0.196,0.586-0.015,0.803
						C407.588,300.683,407.455,300.735,407.323,300.735z"/>
				</g>
				<g>
					<path style="fill:#6020BF;" d="M412.722,296.219c-0.088-0.116-0.133-0.269-0.114-0.428l0.527-4.473
						c0.036-0.311,0.302-0.532,0.593-0.493c0.291,0.039,0.497,0.323,0.46,0.635l-0.526,4.473c-0.036,0.311-0.302,0.532-0.593,0.493
						C412.927,296.406,412.805,296.329,412.722,296.219z"/>
				</g>
				<g>
					<path style="fill:#6020BF;" d="M401.658,308.827c-0.139,0-0.279-0.059-0.383-0.175l-2.919-3.252
						c-0.203-0.226-0.196-0.586,0.015-0.803c0.211-0.218,0.548-0.21,0.751,0.016l2.919,3.252c0.203,0.226,0.196,0.586-0.015,0.803
						C401.923,308.774,401.79,308.827,401.658,308.827z"/>
				</g>
				<g>
					<path style="fill:#6020BF;" d="M433.084,296.519c0.003,0.386,0,0.766,0,1.141l-3.295,0.296
						c-0.292,0.028-0.55-0.206-0.574-0.518c-0.026-0.313,0.192-0.586,0.485-0.614L433.084,296.519z"/>
				</g>
				<g>
					<path style="fill:#6020BF;" d="M394.492,282.526c-0.139,0-0.279-0.059-0.383-0.175l-2.919-3.252
						c-0.203-0.226-0.196-0.586,0.015-0.803c0.212-0.217,0.547-0.21,0.751,0.016l2.919,3.252c0.203,0.226,0.196,0.586-0.015,0.803
						C394.757,282.474,394.625,282.526,394.492,282.526z"/>
				</g>
				<g>
					<path style="fill:#6020BF;" d="M408.538,281.113c-0.009,0.149-0.073,0.294-0.188,0.397l-3.227,2.901
						c-0.225,0.202-0.56,0.171-0.748-0.069c-0.189-0.241-0.16-0.598,0.065-0.8l3.227-2.902c0.224-0.202,0.56-0.171,0.748,0.069
						C408.507,280.827,408.547,280.972,408.538,281.113z"/>
				</g>
				<g>
					<path style="fill:#6020BF;" d="M423.91,297.073c-0.09,0-0.182-0.025-0.266-0.077c-0.254-0.157-0.34-0.505-0.193-0.776
						l2.112-3.902c0.147-0.272,0.471-0.364,0.726-0.207c0.254,0.157,0.341,0.505,0.194,0.776l-2.112,3.902
						C424.272,296.972,424.094,297.073,423.91,297.073z"/>
				</g>
				<g>
					<path style="fill:#6020BF;" d="M427.566,285.475c-0.192,0-0.378-0.112-0.473-0.308l-1.933-4.007
						c-0.135-0.279-0.032-0.622,0.228-0.765c0.26-0.145,0.581-0.035,0.716,0.244l1.932,4.007c0.135,0.279,0.032,0.622-0.229,0.765
						C427.731,285.455,427.648,285.475,427.566,285.475z"/>
				</g>
				<g>
					<path style="fill:#6020BF;" d="M421.801,239.984c-0.192,0-0.378-0.112-0.473-0.308l-1.933-4.007
						c-0.135-0.279-0.032-0.622,0.229-0.765c0.26-0.144,0.581-0.035,0.716,0.244l1.932,4.006c0.135,0.279,0.032,0.622-0.229,0.765
						C421.967,239.964,421.883,239.984,421.801,239.984z"/>
				</g>
				<g>
					<path style="fill:#6020BF;" d="M423.912,223.17c-0.033,0-0.067-0.003-0.101-0.01c-0.288-0.06-0.477-0.358-0.421-0.666
						l0.799-4.426c0.055-0.309,0.335-0.509,0.622-0.45c0.288,0.06,0.476,0.358,0.421,0.665l-0.799,4.426
						C424.384,222.981,424.161,223.17,423.912,223.17z"/>
				</g>
				<g>
					<path style="fill:#6020BF;" d="M433.619,238.445c-0.034,0-0.067-0.003-0.101-0.01c-0.288-0.06-0.476-0.357-0.421-0.665
						l0.799-4.427c0.056-0.308,0.335-0.509,0.622-0.45c0.288,0.06,0.477,0.358,0.421,0.665l-0.799,4.427
						C434.091,238.256,433.868,238.445,433.619,238.445z"/>
				</g>
				<g>
					<path style="fill:#6020BF;" d="M417.015,227.057c-0.033,0-0.067-0.003-0.101-0.01c-0.288-0.06-0.477-0.358-0.421-0.665
						l0.799-4.426c0.055-0.309,0.335-0.509,0.622-0.45c0.288,0.06,0.477,0.358,0.421,0.665l-0.799,4.426
						C417.487,226.868,417.265,227.057,417.015,227.057z"/>
				</g>
				<g>
					<path style="fill:#6020BF;" d="M420.18,211.637c-0.103,0.025-0.203,0.017-0.295-0.017c-0.166-0.062-0.3-0.211-0.342-0.406
						l-0.893-4.065c0.413,0.237,0.832,0.476,1.248,0.716l0.677,3.087C420.644,211.26,420.467,211.564,420.18,211.637z"/>
				</g>
				<g>
					<path style="fill:#6020BF;" d="M432.333,245.289c-0.176,0-0.348-0.093-0.449-0.264l-2.259-3.806
						c-0.157-0.265-0.084-0.616,0.164-0.784c0.248-0.168,0.576-0.089,0.733,0.175l2.259,3.806c0.157,0.265,0.084,0.616-0.164,0.784
						C432.529,245.26,432.43,245.289,432.333,245.289z"/>
				</g>
				<g>
					<path style="fill:#6020BF;" d="M417.247,286.179c-0.145-0.166-0.189-0.416-0.091-0.633l1.815-4.069
						c0.126-0.283,0.443-0.403,0.708-0.268c0.266,0.135,0.377,0.474,0.25,0.757l-1.815,4.069c-0.126,0.283-0.443,0.403-0.708,0.268
						C417.344,286.272,417.291,286.229,417.247,286.179z"/>
				</g>
				<g>
					<path style="fill:#6020BF;" d="M379.884,293.825l-3.548,0.614c0.003-0.38,0.005-0.764,0.011-1.152l3.366-0.586
						c0.29-0.048,0.564,0.161,0.608,0.471C380.368,293.482,380.173,293.775,379.884,293.825z"/>
				</g>
				<g>
					<path style="fill:#6020BF;" d="M378.804,283.43l-2.363,0.409c0.005-0.383,0.008-0.766,0.013-1.152l2.178-0.378
						c0.29-0.051,0.561,0.161,0.608,0.47C379.288,283.09,379.093,283.38,378.804,283.43z"/>
				</g>
				<g>
					<path style="fill:#6020BF;" d="M430.913,274.374c-0.212,0-0.413-0.137-0.495-0.362l-1.536-4.198
						c-0.107-0.292,0.028-0.622,0.301-0.736c0.273-0.115,0.581,0.03,0.688,0.322l1.536,4.198c0.107,0.292-0.028,0.622-0.301,0.736
						C431.042,274.361,430.977,274.374,430.913,274.374z"/>
				</g>
			</g>
			<g>
				<g>
					<g>
						<path style="fill:#6020BF;" d="M432.864,261.129c-0.997-4.121-2.251-8.702-3.493-12.649c-0.003-0.008-0.006-0.014-0.009-0.023
							c-0.383-1.22-0.766-2.378-1.141-3.44c-0.006-0.02-0.011-0.039-0.02-0.056c-0.115-0.335-0.234-0.659-0.349-0.975
							c-0.017-0.056-0.028-0.11-0.028-0.163v-0.003c0-0.189,0.118-0.366,0.307-0.437c0.245-0.087,0.516,0.037,0.603,0.282
							c1.273,3.471,2.778,8.468,4.068,13.37C432.825,258.394,432.844,259.76,432.864,261.129z"/>
					</g>
				</g>
			</g>
			<g>
				<path style="fill:#133643;" d="M390.845,176.52c0,0-5.636-1.967-5.074-6.351c0.479-3.731,4.618-1.312,4.254-4.228
					c-0.364-2.916-1.173-5.566,2.39-6.295c3.116-0.637,3.169,1.624,7.261-1.657c4.835-3.875,8.549,5.098,12.864,5.368
					c6.364,0.397,7.168,4.208,7.794,7.256c0.626,3.048-2.452,6.627-2.452,6.627L390.845,176.52z"/>
				<g>
					<path style="fill:#FF8B6B;" d="M391.79,182.924c0,0-2.365-3.154-4.124-0.546c-1.759,2.608,0.728,10.31,5.034,8.43
						L391.79,182.924z"/>
					<g>
						<path style="fill:#D85C48;" d="M391.759,188.428c-0.159,0-0.305-0.105-0.35-0.266c-0.667-2.378-3.131-3.342-3.156-3.352
							c-0.187-0.072-0.282-0.282-0.211-0.469c0.071-0.188,0.281-0.282,0.469-0.212c0.115,0.044,2.83,1.097,3.599,3.836
							c0.054,0.193-0.059,0.394-0.252,0.449C391.825,188.423,391.792,188.428,391.759,188.428z"/>
					</g>
					<g>
						<path style="fill:#D85C48;" d="M389.273,187.23c-0.068,0-0.136-0.018-0.197-0.058c-0.169-0.109-0.217-0.334-0.109-0.503
							c0.018-0.028,0.454-0.693,1.366-1.101c0.182-0.082,0.399,0,0.481,0.184c0.082,0.183,0,0.398-0.184,0.48
							c-0.705,0.316-1.048,0.826-1.051,0.831C389.509,187.171,389.392,187.23,389.273,187.23z"/>
					</g>
				</g>
				<g>
					<path style="fill:#FF8B6B;" d="M416.165,182.924c0,0,2.365-3.154,4.124-0.546c1.759,2.608-0.728,10.31-5.034,8.43
						L416.165,182.924z"/>
					<g>
						<path style="fill:#D85C48;" d="M416.196,188.428c0.159,0,0.305-0.105,0.35-0.266c0.667-2.378,3.131-3.342,3.156-3.352
							c0.188-0.072,0.282-0.282,0.211-0.469c-0.071-0.188-0.281-0.282-0.468-0.212c-0.115,0.044-2.83,1.097-3.599,3.836
							c-0.054,0.193,0.059,0.394,0.252,0.449C416.13,188.423,416.163,188.428,416.196,188.428z"/>
					</g>
					<g>
						<path style="fill:#D85C48;" d="M418.683,187.23c0.068,0,0.136-0.018,0.197-0.058c0.169-0.109,0.218-0.334,0.109-0.503
							c-0.018-0.028-0.454-0.693-1.366-1.101c-0.183-0.082-0.399,0-0.481,0.184c-0.082,0.183,0,0.398,0.183,0.48
							c0.705,0.316,1.048,0.826,1.051,0.831C418.446,187.171,418.563,187.23,418.683,187.23z"/>
					</g>
				</g>
				<path style="fill:#FFAA95;" d="M409.8,197.341v7.66c0,0-2.284,3.901-5.373,4.167c-3.086,0.269-5.829-3.359-5.829-3.359v-7.929
					L409.8,197.341z"/>
				<path style="fill:#FF8B6B;" d="M409.8,197.341v3.399c-2.073,2.3-5.754,2.875-11.202,2.07v-4.931L409.8,197.341z"/>
				<path style="fill:#FFAA95;" d="M417.874,177.671c-0.14,2.977-0.423,6.7-0.992,9.674v0.008c0,0.009-0.003,0.017-0.006,0.029
					c0,0.003-0.003,0.003-0.003,0.006c-0.14,0.726-0.297,1.41-0.469,2.024c-0.103,0.36-0.214,0.738-0.34,1.124
					c-1.816,5.696-6.022,13.94-16.594,10.168c-4.452-1.587-6.771-6.185-7.952-11.172c-0.069-0.297-0.134-0.592-0.192-0.875
					c-0.04-0.189-0.077-0.372-0.111-0.552l-0.052-0.266c-0.009-0.046-0.014-0.077-0.017-0.097c-0.003-0.011-0.003-0.017-0.003-0.017
					c-0.698-3.835-0.803-7.712-0.752-10.483c0.054-2.825,1.599-5.41,4.058-6.803c6.66-3.777,13.691-2.368,18.321-0.589
					C415.984,171.083,418.04,174.237,417.874,177.671z"/>
				<path style="fill:#133643;" d="M416.882,187.344l-1.624-0.114c0,0-0.926,1.919-2.293,4.035
					c-1.367-3.005-7.961-0.821-7.961-0.821c-0.417,0.134-0.846,0.203-1.278,0.203c-0.42,0-0.838-0.066-1.244-0.191l-0.031-0.011
					c0,0-6.674-2.093-7.989,1.058c-0.806-1.232-1.464-2.619-1.762-4.092l-1.555,0.315c0,0,0,0.006,0.003,0.017
					c0.003,0.02,0.008,0.051,0.017,0.097l0.052,0.266c0.034,0.18,0.072,0.363,0.111,0.552c0.057,0.283,0.123,0.578,0.192,0.875
					c1.181,4.987,3.5,9.585,7.952,11.172c10.572,3.772,14.778-4.472,16.594-10.168c0.369-1.535,0.741-2.9,0.809-3.148
					c0-0.003,0.003-0.003,0.003-0.006c0.003-0.011,0.006-0.02,0.006-0.029c0.003-0.006,0.003-0.008,0.003-0.008H416.882z
					 M409.905,195.159v0.003c-0.003,0-0.003,0-0.003,0c-0.512,0.489-1.035,0.901-1.553,1.178c-2.928,1.584-3.245,1.347-4.403,1.395
					c-1.175,0.057-2.797-0.292-4.444-1.21c-0.515-0.289-1.281-0.846-2.119-1.61c0,0-1.187-4.063,6.359-3.045
					C411.309,190.57,410.031,194.365,409.905,195.159z"/>
				<path style="fill:#133643;" d="M410.03,183.21c0,0.818-0.422,1.481-0.941,1.481c-0.52,0-0.941-0.663-0.941-1.481
					c0-0.818,0.421-1.48,0.941-1.48C409.609,181.729,410.03,182.392,410.03,183.21z"/>
				<path style="fill:#133643;" d="M398.598,183.21c0,0.818-0.421,1.481-0.941,1.481c-0.52,0-0.941-0.663-0.941-1.481
					c0-0.818,0.421-1.48,0.941-1.48C398.177,181.729,398.598,182.392,398.598,183.21z"/>
				<path style="fill:#133643;" d="M412.99,178.218c0,0-3.889-1.537-6.884-0.243l0.299,1.665c0,0,4.395-0.372,6.61,0.526
					C413.214,179.525,413.243,178.877,412.99,178.218z"/>
				<path style="fill:#133643;" d="M394.498,178.225c0,0,3.918-1.548,6.935-0.245l-0.302,1.678c0,0-4.428-0.374-6.659,0.53
					C394.272,179.542,394.243,178.889,394.498,178.225z"/>
				<g>
					<g>
						<g>
							<path style="fill:#FF8B6B;" d="M404.038,189.827c0.614,0,1.223-0.239,1.317-0.277c0.186-0.076,0.275-0.288,0.199-0.474
								c-0.076-0.186-0.288-0.275-0.474-0.2c-0.329,0.133-1.118,0.343-1.46,0.138c-0.066-0.04-0.156-0.118-0.179-0.339
								c-0.132-1.271,0.216-5.53,0.22-5.573c0.017-0.2-0.132-0.376-0.333-0.393c-0.201-0.017-0.376,0.133-0.392,0.333
								c-0.015,0.178-0.357,4.37-0.219,5.708c0.052,0.503,0.316,0.761,0.529,0.888C403.479,189.777,403.759,189.827,404.038,189.827
								z"/>
						</g>
					</g>
				</g>
				<path style="fill:#FFFFFF;" d="M399.465,192.598c0.276,1.39,1.194,3.947,4.288,3.947c3.101,0,3.97-2.337,4.269-3.947H399.465z"
					/>
				<path style="fill:#133643;" d="M417.876,177.669c-0.142,2.977-0.426,6.699-0.994,9.676l-1.626-0.115
					c0,0,0.394-2.513,0.576-4.151c0.182-1.637,0.491-4.698-0.906-5.08c-1.394-0.378-0.576-3.87-2.515-5.384
					c-1.94-1.517-6.278-1.934-9.138-0.172c-2.86,1.758-6.083-0.133-7.401,0.172c-1.321,0.302-3.111,2.122-2.627,3.821
					c0.488,1.696-0.968,2.729-1.321,4.487c-0.353,1.758,0.775,6.488,0.775,6.488l-1.554,0.313c-0.699-3.835-0.804-7.711-0.753-10.48
					c0.054-2.827,1.597-5.411,4.057-6.805c6.663-3.777,13.693-2.369,18.322-0.59C415.983,171.083,418.039,174.238,417.876,177.669z"
					/>
			</g>
		</g>
		<g>
			<g>
				<rect x="200.095" y="343.201" style="fill:#FC5F2D;" width="68.744" height="52.215"/>
				<rect x="197.818" y="340.592" style="fill:#FF8652;" width="73.297" height="8.683"/>
				<rect x="200.095" y="349.276" style="fill:#ED3915;" width="68.744" height="4.779"/>
				<rect x="231.454" y="340.592" style="fill:#FFFFFF;" width="6.025" height="54.87"/>
				<rect x="231.455" y="353.738" style="fill:#F1F1F1;" width="6.024" height="41.724"/>
				<rect x="231.455" y="349.276" style="fill:#D8D8D8;" width="6.024" height="4.778"/>
			</g>
			<g>
				
					<rect x="244.111" y="289.789" transform="matrix(0.9104 0.4138 -0.4138 0.9104 155.663 -86.9168)" style="fill:#7846D3;" width="68.744" height="52.215"/>
				
					<rect x="251.92" y="289.364" transform="matrix(0.9104 0.4138 -0.4138 0.9104 147.3849 -93.0783)" style="fill:#886DF2;" width="73.297" height="8.683"/>
				
					<rect x="251.411" y="297.444" transform="matrix(0.9104 0.4138 -0.4138 0.9104 149.6711 -91.3769)" style="fill:#6020BF;" width="68.744" height="4.779"/>
				
					<rect x="276" y="287.295" transform="matrix(0.9104 0.4138 -0.4138 0.9104 155.2257 -87.24)" style="fill:#FFFFFF;" width="6.025" height="54.87"/>
				
					<rect x="255.431" y="317.701" transform="matrix(0.4138 -0.9104 0.9104 0.4138 -129.9997 439.5452)" style="fill:#F1F1F1;" width="41.724" height="6.024"/>
				
					<rect x="283.394" y="296.821" transform="matrix(0.4138 -0.9104 0.9104 0.4138 -105.4268 435.9473)" style="fill:#D8D8D8;" width="4.778" height="6.024"/>
			</g>
			<g>
				<g>
					<g>
						<circle style="fill:#133643;" cx="224.107" cy="433.483" r="9.163"/>
					</g>
					<g>
						<path style="fill:#335464;" d="M224.107,439.214c-3.16,0-5.73-2.571-5.73-5.73c0-3.16,2.571-5.73,5.73-5.73
							s5.73,2.57,5.73,5.73C229.837,436.643,227.266,439.214,224.107,439.214z"/>
					</g>
				</g>
				<g>
					<g>
						<circle style="fill:#133643;" cx="274.127" cy="433.483" r="9.163"/>
					</g>
					<g>
						<path style="fill:#335464;" d="M274.127,439.214c-3.16,0-5.73-2.571-5.73-5.73c0-3.16,2.571-5.73,5.73-5.73
							s5.73,2.57,5.73,5.73C279.857,436.643,277.287,439.214,274.127,439.214z"/>
					</g>
				</g>
				<g>
					<path style="fill:#133643;" d="M345.1,306.171c-0.33-0.465-0.643-0.944-0.93-1.443h-18.844c-1.06,0-1.991,0.709-2.27,1.733
						l-2.146,7.86H185.799c-0.673,0-1.315,0.293-1.758,0.8c-0.44,0.507-0.642,1.182-0.548,1.852l2.162,15.532
						c-0.05,0.185-0.075,0.382-0.075,0.584c0,0.432,0.116,0.833,0.318,1.179l2.738,19.648l0.648,4.659l2.577,18.502l0.648,4.659
						l2.281,16.373c0.158,1.152,1.143,2.01,2.306,2.01h99.967l-3.259,11.7c-1.525,5.476-6.559,9.3-12.24,9.3h-71.268
						c-1.287,0-2.328,1.041-2.328,2.328c0,1.287,1.041,2.328,2.328,2.328h71.268c7.763,0,14.643-5.224,16.728-12.705l3.998-14.358
						c0,0,0,0,0-0.003l0.003-0.003c0.042-0.094,0.077-0.191,0.102-0.294l4.646-16.678l1.296-4.659l5.155-18.502l1.296-4.659
						l5.327-19.125l0.653-2.342v-0.003l4.225-15.174c0.019-0.069,0.036-0.141,0.047-0.21l2.082-7.627h15.354
						C343.415,308.398,344.309,307.324,345.1,306.171z M301.663,383.691v0.008c-0.042,0.1-0.08,0.199-0.111,0.305l-3.192,11.459
						h-99.233l-1.91-13.724h104.992L301.663,383.691z M303.507,377.079H196.566l-2.577-18.502h114.668L303.507,377.079z
						 M309.957,353.918h-116.62l-2.572-18.5h124.342L309.957,353.918z M316.405,330.761H190.115l-1.642-11.78h131.213
						L316.405,330.761z"/>
				</g>
				<path style="fill:#7846D3;" d="M344.17,304.728c0.288,0.5,0.6,0.98,0.93,1.445c-0.793,1.153-1.685,2.225-2.625,3.263h-6.853
					v-4.707H344.17z"/>
				<path style="fill:#133643;" d="M360.559,307.082c0,1.298-1.055,2.353-2.353,2.353h-3.472c0.141-0.665,0.064-1.357-0.21-1.96
					c-1.495-1.48-4.84-2.117-4.84-2.746h8.522C359.504,304.729,360.559,305.783,360.559,307.082z"/>
				<path style="fill:#7846D3;" d="M360.558,307.082c0,1.298-1.055,2.353-2.353,2.353h-3.473c0.143-0.665,0.065-1.357-0.21-1.96
					c-1.495-1.48-4.84-2.117-4.84-2.747h8.522C359.503,304.728,360.558,305.783,360.558,307.082z"/>
			</g>
		</g>
	</g>
	<g>
		<g>
			<path style="fill:#FFFFFF;" d="M139.826,305.937h-23.077c-2.78,0-5.033-2.253-5.033-5.033v-23.077
				c0-2.78,2.253-5.033,5.033-5.033h23.077c2.78,0,5.033,2.253,5.033,5.033v23.077C144.859,303.683,142.606,305.937,139.826,305.937
				z"/>
			<path style="fill:#FC5F2D;" d="M137.97,287.03c0,1.481-0.561,2.962-1.686,4.086l-7.676,7.676l-7.676-7.676
				c-1.125-1.125-1.686-2.606-1.686-4.086s0.561-2.962,1.684-4.084c2.097-2.097,5.291-1.718,7.678,1.825
				c2.387-3.543,5.581-3.922,7.678-1.825C137.409,284.069,137.97,285.549,137.97,287.03z"/>
		</g>
		<g>
			<path style="fill:#7846D3;" d="M206.795,157.001h-97.989c-2.004,0-3.629-1.625-3.629-3.629v-14.497
				c0-2.004,1.625-3.629,3.629-3.629h97.989c2.004,0,3.629,1.625,3.629,3.629v14.497
				C210.423,155.376,208.799,157.001,206.795,157.001z"/>
			<path style="fill:#A071E7;" d="M204.058,151.858H193.88c-0.598,0-1.083-0.485-1.083-1.083v-10.178
				c0-0.598,0.485-1.083,1.083-1.083h10.178c0.598,0,1.083,0.485,1.083,1.083v10.178
				C205.142,151.373,204.657,151.858,204.058,151.858z"/>
			<g>
				<path style="fill:#A071E7;" d="M182.549,141.849H112.98c-0.565,0-1.024-0.458-1.024-1.024v-0.288
					c0-0.566,0.458-1.024,1.024-1.024h69.569c0.566,0,1.024,0.458,1.024,1.024v0.288
					C183.573,141.39,183.115,141.849,182.549,141.849z"/>
				<path style="fill:#A071E7;" d="M182.549,146.853H112.98c-0.565,0-1.024-0.458-1.024-1.024v-0.288
					c0-0.565,0.458-1.024,1.024-1.024h69.569c0.566,0,1.024,0.458,1.024,1.024v0.288
					C183.573,146.395,183.115,146.853,182.549,146.853z"/>
				<path style="fill:#A071E7;" d="M182.549,151.858H112.98c-0.565,0-1.024-0.458-1.024-1.024v-0.288
					c0-0.565,0.458-1.024,1.024-1.024h69.569c0.566,0,1.024,0.458,1.024,1.024v0.288C183.573,151.4,183.115,151.858,182.549,151.858
					z"/>
			</g>
		</g>
		<g>
			<path style="fill:#FC5F2D;" d="M207.321,188.932h-97.989c-2.004,0-3.629-1.625-3.629-3.629v-14.498
				c0-2.004,1.625-3.629,3.629-3.629h97.989c2.004,0,3.629,1.625,3.629,3.629v14.498
				C210.95,187.307,209.325,188.932,207.321,188.932z"/>
			<path style="fill:#FF8652;" d="M204.058,184.217H193.88c-0.598,0-1.083-0.485-1.083-1.083v-10.178
				c0-0.598,0.485-1.083,1.083-1.083h10.178c0.598,0,1.083,0.485,1.083,1.083v10.178
				C205.142,183.732,204.657,184.217,204.058,184.217z"/>
			<g>
				<g>
					<g>
						<path style="fill:#FF8652;" d="M182.549,174.217H112.98c-0.565,0-1.024-0.458-1.024-1.024v-0.288
							c0-0.566,0.458-1.024,1.024-1.024h69.569c0.566,0,1.024,0.458,1.024,1.024v0.288
							C183.573,173.759,183.115,174.217,182.549,174.217z"/>
					</g>
					<g>
						<path style="fill:#FF8652;" d="M182.549,179.222H112.98c-0.565,0-1.024-0.458-1.024-1.024v-0.288
							c0-0.565,0.458-1.024,1.024-1.024h69.569c0.566,0,1.024,0.458,1.024,1.024v0.288
							C183.573,178.763,183.115,179.222,182.549,179.222z"/>
					</g>
					<g>
						<path style="fill:#FF8652;" d="M182.549,184.226H112.98c-0.565,0-1.024-0.458-1.024-1.024v-0.288
							c0-0.565,0.458-1.024,1.024-1.024h69.569c0.566,0,1.024,0.458,1.024,1.024v0.288
							C183.573,183.768,183.115,184.226,182.549,184.226z"/>
					</g>
				</g>
			</g>
		</g>
	</g>
	<g>
		<g>
			<g>
				<path style="fill:#7846D3;" d="M372.295,88.109c-3.126,0-5.67-2.544-5.67-5.67c0-3.127,2.544-5.67,5.67-5.67
					c3.126,0,5.67,2.544,5.67,5.67C377.965,85.565,375.421,88.109,372.295,88.109z M372.295,78.548
					c-2.146,0-3.891,1.746-3.891,3.891c0,2.146,1.746,3.891,3.891,3.891c2.146,0,3.891-1.746,3.891-3.891
					C376.186,80.293,374.441,78.548,372.295,78.548z"/>
			</g>
			<g>
				<path style="fill:#7846D3;" d="M362.938,62.655c-3.126,0-5.67-2.544-5.67-5.67c0-3.126,2.544-5.67,5.67-5.67
					s5.67,2.544,5.67,5.67C368.608,60.111,366.064,62.655,362.938,62.655z M362.938,53.093c-2.146,0-3.891,1.746-3.891,3.891
					c0,2.146,1.746,3.891,3.891,3.891c2.146,0,3.891-1.746,3.891-3.891C366.829,54.839,365.084,53.093,362.938,53.093z"/>
			</g>
			<g>
				<g>
					<g>
						<g>
							<path style="fill:#FC5F2D;" d="M385.175,103.611c-0.491,0-0.889-0.398-0.889-0.89v-3.922c0-0.491,0.398-0.889,0.889-0.889
								s0.889,0.398,0.889,0.889v3.922C386.065,103.213,385.666,103.611,385.175,103.611z"/>
						</g>
						<g>
							<path style="fill:#FC5F2D;" d="M385.175,110.475c-0.491,0-0.889-0.398-0.889-0.89v-3.922c0-0.491,0.398-0.889,0.889-0.889
								s0.889,0.398,0.889,0.889v3.922C386.065,110.077,385.666,110.475,385.175,110.475z"/>
						</g>
					</g>
					<g>
						<g>
							<path style="fill:#FC5F2D;" d="M390.681,105.082h-3.523c-0.491,0-0.889-0.398-0.889-0.889c0-0.491,0.398-0.889,0.889-0.889
								h3.523c0.491,0,0.889,0.398,0.889,0.889C391.57,104.683,391.172,105.082,390.681,105.082z"/>
						</g>
						<g>
							<path style="fill:#FC5F2D;" d="M383.193,105.082h-3.523c-0.491,0-0.89-0.398-0.89-0.889c0-0.491,0.398-0.889,0.89-0.889
								h3.523c0.491,0,0.889,0.398,0.889,0.889C384.083,104.683,383.684,105.082,383.193,105.082z"/>
						</g>
					</g>
				</g>
			</g>
			<g>
				<g>
					<g>
						<g>
							<path style="fill:#FC5F2D;" d="M344.347,75.501c-0.491,0-0.889-0.398-0.889-0.89v-3.922c0-0.491,0.398-0.889,0.889-0.889
								s0.889,0.398,0.889,0.889v3.922C345.237,75.103,344.838,75.501,344.347,75.501z"/>
						</g>
						<g>
							<path style="fill:#FC5F2D;" d="M344.347,82.366c-0.491,0-0.889-0.398-0.889-0.89v-3.922c0-0.491,0.398-0.889,0.889-0.889
								s0.889,0.398,0.889,0.889v3.922C345.237,81.967,344.838,82.366,344.347,82.366z"/>
						</g>
					</g>
					<g>
						<g>
							<path style="fill:#FC5F2D;" d="M349.853,76.972h-3.523c-0.491,0-0.889-0.398-0.889-0.889c0-0.491,0.398-0.889,0.889-0.889
								h3.523c0.491,0,0.89,0.398,0.89,0.889C350.742,76.574,350.344,76.972,349.853,76.972z"/>
						</g>
						<g>
							<path style="fill:#FC5F2D;" d="M342.365,76.972h-3.523c-0.491,0-0.889-0.398-0.889-0.889c0-0.491,0.398-0.889,0.889-0.889
								h3.523c0.491,0,0.889,0.398,0.889,0.889C343.255,76.574,342.856,76.972,342.365,76.972z"/>
						</g>
					</g>
				</g>
			</g>
		</g>
		<g>
			<g>
				<path style="fill:#7846D3;" d="M68.767,264.992c-3.126,0-5.67-2.544-5.67-5.67c0-3.127,2.544-5.67,5.67-5.67
					c3.126,0,5.67,2.544,5.67,5.67C74.437,262.449,71.893,264.992,68.767,264.992z M68.767,255.431
					c-2.146,0-3.891,1.746-3.891,3.891c0,2.146,1.746,3.891,3.891,3.891c2.146,0,3.891-1.746,3.891-3.891
					C72.658,257.176,70.913,255.431,68.767,255.431z"/>
			</g>
			<g>
				<path style="fill:#FC5F2D;" d="M82.417,289.102c-3.126,0-5.67-2.544-5.67-5.67c0-3.127,2.544-5.67,5.67-5.67
					c3.127,0,5.67,2.544,5.67,5.67C88.087,286.558,85.544,289.102,82.417,289.102z M82.417,279.54c-2.146,0-3.891,1.746-3.891,3.891
					c0,2.146,1.746,3.891,3.891,3.891c2.146,0,3.891-1.746,3.891-3.891C86.308,281.286,84.563,279.54,82.417,279.54z"/>
			</g>
			<g>
				<g>
					<g>
						<path style="fill:#7846D3;" d="M93.314,307.01c-0.491,0-0.89-0.398-0.89-0.889v-3.922c0-0.491,0.398-0.889,0.89-0.889
							s0.889,0.398,0.889,0.889v3.922C94.203,306.612,93.805,307.01,93.314,307.01z"/>
					</g>
					<g>
						<path style="fill:#7846D3;" d="M93.314,313.874c-0.491,0-0.89-0.398-0.89-0.889v-3.922c0-0.491,0.398-0.889,0.89-0.889
							s0.889,0.398,0.889,0.889v3.922C94.203,313.476,93.805,313.874,93.314,313.874z"/>
					</g>
				</g>
				<g>
					<g>
						<path style="fill:#7846D3;" d="M98.82,308.481h-3.523c-0.491,0-0.889-0.398-0.889-0.889c0-0.491,0.398-0.89,0.889-0.89h3.523
							c0.491,0,0.889,0.398,0.889,0.89C99.709,308.083,99.311,308.481,98.82,308.481z"/>
					</g>
					<g>
						<path style="fill:#7846D3;" d="M91.332,308.481h-3.524c-0.491,0-0.889-0.398-0.889-0.889c0-0.491,0.398-0.89,0.889-0.89h3.524
							c0.491,0,0.889,0.398,0.889,0.89C92.221,308.083,91.823,308.481,91.332,308.481z"/>
					</g>
				</g>
			</g>
			<g>
				<g>
					<g>
						<g>
							<path style="fill:#FC5F2D;" d="M52.486,278.901c-0.491,0-0.889-0.398-0.889-0.889v-3.922c0-0.491,0.398-0.889,0.889-0.889
								c0.491,0,0.889,0.398,0.889,0.889v3.922C53.375,278.503,52.977,278.901,52.486,278.901z"/>
						</g>
						<g>
							<path style="fill:#FC5F2D;" d="M52.486,285.765c-0.491,0-0.889-0.398-0.889-0.889v-3.922c0-0.491,0.398-0.889,0.889-0.889
								c0.491,0,0.889,0.398,0.889,0.889v3.922C53.375,285.367,52.977,285.765,52.486,285.765z"/>
						</g>
					</g>
					<g>
						<g>
							<path style="fill:#FC5F2D;" d="M57.992,280.372h-3.524c-0.491,0-0.889-0.398-0.889-0.889c0-0.491,0.398-0.889,0.889-0.889
								h3.524c0.491,0,0.889,0.398,0.889,0.889C58.881,279.974,58.483,280.372,57.992,280.372z"/>
						</g>
						<g>
							<path style="fill:#FC5F2D;" d="M50.504,280.372H46.98c-0.491,0-0.889-0.398-0.889-0.889c0-0.491,0.398-0.889,0.889-0.889
								h3.523c0.491,0,0.889,0.398,0.889,0.889C51.393,279.974,50.995,280.372,50.504,280.372z"/>
						</g>
					</g>
				</g>
			</g>
		</g>
	</g>
</g>
<g id="DESIGNED_BY_FREEPIK">
	<g>
		<g id="XMLID_1_">
			<g id="XMLID_20_">
				<path id="XMLID_28_" style="fill:#112129;" d="M260.104,465.465c-0.432,0.443-0.803,0.931-1.108,1.453l-0.465-0.241
					c-0.067-0.298-0.349-0.503-0.659-0.466c-0.331,0.039-0.568,0.339-0.529,0.67c0.039,0.331,0.339,0.568,0.67,0.529
					c0.065-0.008,0.127-0.026,0.183-0.052l0.452,0.234c-0.251,0.554-0.433,1.139-0.539,1.744l0.747,0.132
					c0.23-1.306,0.85-2.507,1.792-3.473L260.104,465.465z"/>
				<path id="XMLID_27_" style="fill:#112129;" d="M265.592,463.163c-0.171,0-0.341,0.006-0.51,0.017l-0.074-0.626
					c0.188-0.149,0.296-0.389,0.266-0.645c-0.046-0.393-0.402-0.674-0.795-0.628c-0.393,0.046-0.674,0.402-0.628,0.795
					c0.03,0.254,0.189,0.461,0.405,0.564l0.073,0.624c-0.714,0.116-1.403,0.332-2.06,0.646l0.327,0.684
					c0.934-0.447,1.942-0.673,2.995-0.673c0.496,0,0.993,0.053,1.475,0.158l0.161-0.741
					C266.692,463.222,266.142,463.163,265.592,463.163z"/>
				<path id="XMLID_26_" style="fill:#112129;" d="M272.194,465.711c0.331-0.04,0.566-0.341,0.526-0.672
					c-0.04-0.331-0.341-0.566-0.672-0.526c-0.309,0.038-0.535,0.304-0.53,0.609l-0.416,0.363c-0.418-0.43-0.89-0.813-1.408-1.139
					l-0.404,0.641c1.134,0.715,2.021,1.726,2.563,2.925l0.691-0.313c-0.251-0.554-0.568-1.072-0.942-1.545l0.402-0.351
					C272.065,465.716,272.129,465.719,272.194,465.711z"/>
				<path id="XMLID_25_" style="fill:#112129;" d="M265.044,473.372c-0.386,0.023-0.775,0.035-1.157,0.035
					c-0.88,0-1.733-0.061-2.478-0.179c-0.39-0.062-0.846-0.155-1.27-0.292c1.046,1.861,3.069,3.125,5.388,3.125
					c2.855,0,5.262-1.916,5.95-4.504c-0.682,0.449-1.505,0.825-2.459,1.123C267.839,473.047,266.464,473.286,265.044,473.372z"/>
				<path id="XMLID_21_" style="fill:#112129;" d="M265.592,464.68c-3.352,0-6.08,2.666-6.08,5.943c0,0.426,0.046,0.849,0.137,1.261
					c0.673,0.483,2.706,0.89,5.348,0.731c2.879-0.173,5.297-0.957,6.672-2.159c-0.005-0.195-0.021-0.39-0.045-0.582
					C271.244,466.913,268.65,464.68,265.592,464.68z M263.432,471.194c-1.02,0-1.85-0.83-1.85-1.85c0-1.02,0.83-1.85,1.85-1.85
					c1.02,0,1.85,0.83,1.85,1.85C265.282,470.365,264.452,471.194,263.432,471.194z M268.17,470.286c-0.75,0-1.36-0.61-1.36-1.36
					s0.61-1.361,1.36-1.361c0.75,0,1.361,0.61,1.361,1.361S268.92,470.286,268.17,470.286z"/>
			</g>
			<path id="XMLID_18_" style="fill:#112129;" d="M281.595,466.547c-0.295-0.116-0.805-0.309-1.382-0.237
				c-0.551,0.069-0.844,0.341-0.844,1.007v0.866h2.228v1.717h-2.228v5.455h-1.932v-5.455h-1.34v-1.717h1.34v-0.888
				c0-1.68,0.896-2.783,2.568-2.783c0.643,0,1.157,0.122,1.59,0.308L281.595,466.547z"/>
			<path id="XMLID_16_" style="fill:#112129;" d="M286.298,469.879c-0.177-0.03-0.358-0.046-0.526-0.046
				c-0.896,0-1.51,0.548-1.51,1.614v3.908h-1.932v-7.172h1.873v0.785c0.451-0.673,1.14-0.977,2.021-0.977
				c0.414,0,0.848,0.128,1.094,0.337L286.298,469.879z"/>
			<path id="XMLID_13_" style="fill:#112129;" d="M293.965,471.757c0,0.222-0.015,0.489-0.037,0.651h-5.085
				c0.207,1.036,0.933,1.488,1.843,1.488c0.622,0,1.295-0.252,1.813-0.688l1.132,1.243c-0.814,0.748-1.85,1.088-3.057,1.088
				c-2.198,0-3.723-1.495-3.723-3.753c0-2.258,1.48-3.797,3.627-3.797C292.544,467.99,293.958,469.522,293.965,471.757z
				 M288.851,471.091h3.175c-0.177-0.918-0.733-1.436-1.562-1.436C289.554,469.655,289.021,470.203,288.851,471.091z"/>
			<path id="XMLID_10_" style="fill:#112129;" d="M301.618,471.757c0,0.222-0.015,0.489-0.037,0.651h-5.085
				c0.207,1.036,0.933,1.488,1.843,1.488c0.622,0,1.295-0.252,1.813-0.688l1.132,1.243c-0.814,0.748-1.85,1.088-3.057,1.088
				c-2.198,0-3.723-1.495-3.723-3.753c0-2.258,1.48-3.797,3.627-3.797C300.197,467.99,301.611,469.522,301.618,471.757z
				 M296.504,471.091h3.175c-0.178-0.918-0.733-1.436-1.562-1.436C297.207,469.655,296.674,470.203,296.504,471.091z"/>
			<path id="XMLID_7_" style="fill:#112129;" d="M309.964,471.764c0,2.154-1.495,3.775-3.471,3.775
				c-0.962,0-1.643-0.378-2.109-0.933v3.708h-1.924v-10.133h1.887v0.792c0.466-0.585,1.155-0.984,2.139-0.984
				C308.469,467.99,309.964,469.61,309.964,471.764z M304.287,471.764c0,1.132,0.747,1.976,1.843,1.976
				c1.14,0,1.85-0.881,1.85-1.976c0-1.095-0.71-1.976-1.85-1.976C305.035,469.788,304.287,470.632,304.287,471.764z"/>
			<path id="XMLID_4_" style="fill:#112129;" d="M313.068,465.836c0,0.696-0.54,1.229-1.236,1.229c-0.696,0-1.229-0.533-1.229-1.229
				c0-0.696,0.533-1.243,1.229-1.243C312.527,464.592,313.068,465.14,313.068,465.836z M312.809,475.354h-1.932v-7.172h1.932
				V475.354z"/>
			<path id="XMLID_2_" style="fill:#112129;" d="M316.032,470.736l2.701-2.554h2.368l-3.479,3.375l3.501,3.797h-2.376l-2.716-2.901
				v2.901H314.1v-10.658h1.932V470.736z"/>
		</g>
		<g>
			<path style="fill:#112129;" d="M184.412,475.289v-1.055c-0.527,0.718-1.391,1.23-2.387,1.23c-1.846,0-3.149-1.406-3.149-3.706
				c0-2.256,1.289-3.721,3.149-3.721c0.952,0,1.816,0.469,2.387,1.245v-3.765h1.099v9.77H184.412z M184.412,473.37v-3.208
				c-0.395-0.615-1.245-1.143-2.124-1.143c-1.421,0-2.27,1.172-2.27,2.739c0,1.567,0.85,2.724,2.27,2.724
				C183.168,474.483,184.017,473.986,184.412,473.37z"/>
			<path style="fill:#112129;" d="M186.932,471.744c0-2.051,1.465-3.706,3.486-3.706c2.139,0,3.398,1.67,3.398,3.794v0.279h-5.727
				c0.088,1.333,1.025,2.446,2.549,2.446c0.805,0,1.626-0.322,2.182-0.894l0.527,0.718c-0.703,0.703-1.655,1.084-2.812,1.084
				C188.44,475.465,186.932,473.956,186.932,471.744z M190.403,468.947c-1.509,0-2.256,1.274-2.314,2.358h4.643
				C192.718,470.25,192.015,468.947,190.403,468.947z"/>
			<path style="fill:#112129;" d="M194.607,474.351l0.571-0.791c0.469,0.542,1.362,1.011,2.329,1.011c1.084,0,1.67-0.513,1.67-1.216
				c0-1.714-4.38-0.659-4.38-3.281c0-1.098,0.952-2.036,2.636-2.036c1.201,0,2.051,0.454,2.622,1.026l-0.513,0.762
				c-0.424-0.513-1.201-0.894-2.109-0.894c-0.967,0-1.567,0.483-1.567,1.113c0,1.552,4.38,0.527,4.38,3.281
				c0,1.187-0.952,2.138-2.783,2.138C196.306,475.465,195.325,475.113,194.607,474.351z"/>
			<path style="fill:#112129;" d="M201.477,466.471c0-0.41,0.337-0.747,0.732-0.747c0.41,0,0.747,0.337,0.747,0.747
				c0,0.41-0.337,0.732-0.747,0.732C201.814,467.203,201.477,466.881,201.477,466.471z M201.667,475.289v-7.075h1.099v7.075H201.667
				z"/>
			<path style="fill:#112129;" d="M204.582,477.105l0.556-0.82c0.586,0.703,1.289,0.967,2.3,0.967c1.172,0,2.27-0.571,2.27-2.124
				v-1.011c-0.513,0.718-1.377,1.26-2.373,1.26c-1.845,0-3.149-1.377-3.149-3.662c0-2.27,1.289-3.677,3.149-3.677
				c0.952,0,1.802,0.469,2.373,1.245v-1.069h1.098v6.87c0,2.344-1.641,3.076-3.369,3.076
				C206.237,478.16,205.417,477.926,204.582,477.105z M209.709,473.253v-3.091c-0.381-0.615-1.23-1.143-2.109-1.143
				c-1.421,0-2.27,1.128-2.27,2.695c0,1.553,0.849,2.695,2.27,2.695C208.478,474.41,209.328,473.868,209.709,473.253z"/>
			<path style="fill:#112129;" d="M217.413,475.289v-4.629c0-1.245-0.63-1.641-1.582-1.641c-0.865,0-1.685,0.527-2.095,1.099v5.17
				h-1.099v-7.075h1.099v1.025c0.498-0.586,1.465-1.201,2.519-1.201c1.48,0,2.256,0.747,2.256,2.285v4.966H217.413z"/>
			<path style="fill:#112129;" d="M219.932,471.744c0-2.051,1.465-3.706,3.486-3.706c2.139,0,3.398,1.67,3.398,3.794v0.279h-5.727
				c0.088,1.333,1.025,2.446,2.549,2.446c0.806,0,1.626-0.322,2.183-0.894l0.527,0.718c-0.703,0.703-1.655,1.084-2.812,1.084
				C221.441,475.465,219.932,473.956,219.932,471.744z M223.404,468.947c-1.509,0-2.256,1.274-2.314,2.358h4.643
				C225.718,470.25,225.015,468.947,223.404,468.947z"/>
			<path style="fill:#112129;" d="M233.35,475.289v-1.055c-0.527,0.718-1.392,1.23-2.388,1.23c-1.846,0-3.149-1.406-3.149-3.706
				c0-2.256,1.289-3.721,3.149-3.721c0.952,0,1.817,0.469,2.388,1.245v-3.765h1.098v9.77H233.35z M233.35,473.37v-3.208
				c-0.396-0.615-1.245-1.143-2.124-1.143c-1.421,0-2.27,1.172-2.27,2.739c0,1.567,0.849,2.724,2.27,2.724
				C232.105,474.483,232.954,473.986,233.35,473.37z"/>
			<path style="fill:#112129;" d="M239.692,475.289v-9.77h1.098v3.765c0.572-0.776,1.421-1.245,2.388-1.245
				c1.845,0,3.149,1.465,3.149,3.721c0,2.299-1.304,3.706-3.149,3.706c-0.996,0-1.86-0.513-2.388-1.23v1.055H239.692z
				 M242.9,474.483c1.436,0,2.285-1.157,2.285-2.724c0-1.568-0.85-2.739-2.285-2.739c-0.864,0-1.728,0.527-2.109,1.143v3.208
				C241.171,473.986,242.036,474.483,242.9,474.483z"/>
			<path style="fill:#112129;" d="M247.528,477.061c0.161,0.073,0.425,0.117,0.601,0.117c0.483,0,0.805-0.161,1.055-0.747
				l0.469-1.069l-2.959-7.148h1.187l2.358,5.8l2.344-5.8h1.201l-3.545,8.51c-0.425,1.025-1.143,1.421-2.08,1.435
				c-0.234,0-0.601-0.044-0.806-0.103L247.528,477.061z"/>
		</g>
	</g>
</g>
</svg>
